<svg width="53" height="53" viewBox="0 0 53 53" fill="none" xmlns="http://www.w3.org/2000/svg">
<circle opacity="0.1" cx="26.5" cy="26.5" r="26.5" fill="#219653"/>
<path d="M29.1394 36.3125C28.0025 34.6444 26.8125 32.445 26.8125 30.4688C26.8125 28.5244 27.8325 26.75 29.3625 25.6875H28.9375V23.5625H31.0625V24.8694C31.5938 24.7206 32.125 24.625 32.6563 24.625C32.8369 24.625 33.0175 24.625 33.1875 24.6569V17.1875H18.3125V36.3125H24.6875V32.5938H26.8125V36.3125H29.1394ZM28.9375 19.3125H31.0625V21.4375H28.9375V19.3125ZM22.5625 34.1875H20.4375V32.0625H22.5625V34.1875ZM22.5625 29.9375H20.4375V27.8125H22.5625V29.9375ZM22.5625 25.6875H20.4375V23.5625H22.5625V25.6875ZM22.5625 21.4375H20.4375V19.3125H22.5625V21.4375ZM24.6875 19.3125H26.8125V21.4375H24.6875V19.3125ZM24.6875 23.5625H26.8125V25.6875H24.6875V23.5625ZM24.6875 29.9375V27.8125H26.8125V29.9375H24.6875ZM32.6563 26.75C30.6375 26.75 28.9375 28.4606 28.9375 30.4688C28.9375 33.2419 32.6563 37.375 32.6563 37.375C32.6563 37.375 36.375 33.2419 36.375 30.4688C36.375 28.4606 34.675 26.75 32.6563 26.75ZM32.6563 31.8606C31.9125 31.8606 31.3813 31.2231 31.3813 30.5856C31.3813 29.8419 32.0188 29.3106 32.6563 29.3106C33.2938 29.3106 33.9313 29.9375 33.9313 30.5856C34.0375 31.2231 33.4 31.8606 32.6563 31.8606Z" fill="#219653"/>
</svg>
