<svg width="100" height="100" viewBox="0 0 100 100" fill="none" xmlns="http://www.w3.org/2000/svg">
<circle opacity="0.1" cx="50" cy="50" r="50" fill="#BF5AF2"/>
<path d="M72.8594 44.5312H53.8125V43.7031C53.8125 43.4835 53.7253 43.2729 53.5699 43.1176C53.4146 42.9622 53.204 42.875 52.9844 42.875H50.5V41.2188H58.7812C60.0986 41.2174 61.3617 40.6935 62.2932 39.762C63.2248 38.8304 63.7487 37.5674 63.75 36.25V33.7656C63.75 33.546 63.6628 33.3354 63.5075 33.1801C63.3521 33.0247 63.1415 32.9375 62.9219 32.9375H55.4688V29.625C55.4674 28.3076 54.9435 27.0446 54.012 26.113C53.0804 25.1815 51.8174 24.6576 50.5 24.6562H33.1094C32.0116 24.6576 30.9592 25.0942 30.183 25.8705C29.4067 26.6467 28.9701 27.6991 28.9688 28.7969V34.6766C28.0341 34.8688 27.1944 35.3773 26.591 36.1165C25.9876 36.8556 25.6575 37.7802 25.6562 38.7344V70.2031C25.6576 71.3009 26.0942 72.3533 26.8705 73.1295C27.6467 73.9058 28.6991 74.3424 29.7969 74.3438H46.3594C47.4571 74.3424 48.5096 73.9058 49.2858 73.1295C50.062 72.3533 50.4987 71.3009 50.5 70.2031V66.0625H52.9844C53.204 66.0625 53.4146 65.9753 53.5699 65.82C53.7253 65.6646 53.8125 65.454 53.8125 65.2344V64.4062H72.8594C73.5183 64.4062 74.1502 64.1445 74.6161 63.6786C75.082 63.2127 75.3438 62.5808 75.3438 61.9219V47.0156C75.3438 46.3567 75.082 45.7248 74.6161 45.2589C74.1502 44.793 73.5183 44.5312 72.8594 44.5312ZM62.0938 36.25C62.0938 37.1285 61.7448 37.9711 61.1235 38.5923C60.5023 39.2135 59.6598 39.5625 58.7812 39.5625C57.9027 39.5625 57.0602 39.2135 56.439 38.5923C55.8177 37.9711 55.4688 37.1285 55.4688 36.25V34.5938H62.0938V36.25ZM30.625 28.7969C30.625 28.138 30.8867 27.5061 31.3527 27.0402C31.8186 26.5742 32.4505 26.3125 33.1094 26.3125H46.7999C45.9823 27.222 45.5303 28.402 45.5312 29.625V41.2188H30.625V28.7969ZM48.8438 70.2031C48.8438 70.862 48.582 71.4939 48.1161 71.9598C47.6502 72.4258 47.0183 72.6875 46.3594 72.6875H29.7969C29.138 72.6875 28.5061 72.4258 28.0402 71.9598C27.5742 71.4939 27.3125 70.862 27.3125 70.2031V38.7344C27.3146 38.2224 27.4749 37.7235 27.7714 37.3061C28.0678 36.8887 28.486 36.573 28.9688 36.4024V42.0469C28.9688 42.2665 29.056 42.4771 29.2113 42.6324C29.3666 42.7878 29.5772 42.875 29.7969 42.875H46.3594C46.579 42.875 46.7896 42.7878 46.9449 42.6324C47.1003 42.4771 47.1875 42.2665 47.1875 42.0469V36.4024C47.6702 36.573 48.0884 36.8887 48.3849 37.3061C48.6814 37.7235 48.8416 38.2224 48.8438 38.7344V70.2031ZM47.1875 34.6766V29.625C47.1875 28.7465 47.5365 27.9039 48.1577 27.2827C48.7789 26.6615 49.6215 26.3125 50.5 26.3125C51.3785 26.3125 52.2211 26.6615 52.8423 27.2827C53.4635 27.9039 53.8125 28.7465 53.8125 29.625V36.25C53.8128 37.474 54.2673 38.6543 55.0878 39.5625H50.5V38.7344C50.4988 37.7802 50.1687 36.8556 49.5653 36.1165C48.9619 35.3773 48.1221 34.8688 47.1875 34.6766ZM52.1562 64.4062H50.5V44.5312H52.1562V64.4062ZM72.8594 46.1875C73.079 46.1875 73.2896 46.2747 73.445 46.4301C73.6003 46.5854 73.6875 46.796 73.6875 47.0156V49.5H53.8125V46.1875H72.8594ZM72.8594 62.75H53.8125V51.1562H73.6875V61.9219C73.6875 62.1415 73.6003 62.3521 73.445 62.5075C73.2896 62.6628 73.079 62.75 72.8594 62.75Z" fill="#BF5AF2"/>
<path d="M33.1094 52.8125H29.7969C29.5772 52.8125 29.3666 52.8997 29.2113 53.0551C29.056 53.2104 28.9688 53.421 28.9688 53.6406V56.9531C28.9688 57.1728 29.056 57.3834 29.2113 57.5387C29.3666 57.694 29.5772 57.7812 29.7969 57.7812H33.1094C33.329 57.7812 33.5396 57.694 33.6949 57.5387C33.8503 57.3834 33.9375 57.1728 33.9375 56.9531V53.6406C33.9375 53.421 33.8503 53.2104 33.6949 53.0551C33.5396 52.8997 33.329 52.8125 33.1094 52.8125ZM32.2812 56.125H30.625V54.4688H32.2812V56.125Z" fill="#BF5AF2"/>
<path d="M39.7344 52.8125H36.4219C36.2022 52.8125 35.9916 52.8997 35.8363 53.0551C35.681 53.2104 35.5938 53.421 35.5938 53.6406V56.9531C35.5938 57.1728 35.681 57.3834 35.8363 57.5387C35.9916 57.694 36.2022 57.7812 36.4219 57.7812H39.7344C39.954 57.7812 40.1646 57.694 40.3199 57.5387C40.4753 57.3834 40.5625 57.1728 40.5625 56.9531V53.6406C40.5625 53.421 40.4753 53.2104 40.3199 53.0551C40.1646 52.8997 39.954 52.8125 39.7344 52.8125ZM38.9062 56.125H37.25V54.4688H38.9062V56.125Z" fill="#BF5AF2"/>
<path d="M46.3594 52.8125H43.0469C42.8272 52.8125 42.6166 52.8997 42.4613 53.0551C42.306 53.2104 42.2188 53.421 42.2188 53.6406V56.9531C42.2188 57.1728 42.306 57.3834 42.4613 57.5387C42.6166 57.694 42.8272 57.7812 43.0469 57.7812H46.3594C46.579 57.7812 46.7896 57.694 46.9449 57.5387C47.1003 57.3834 47.1875 57.1728 47.1875 56.9531V53.6406C47.1875 53.421 47.1003 53.2104 46.9449 53.0551C46.7896 52.8997 46.579 52.8125 46.3594 52.8125ZM45.5312 56.125H43.875V54.4688H45.5312V56.125Z" fill="#BF5AF2"/>
<path d="M33.1094 59.4375H29.7969C29.5772 59.4375 29.3666 59.5247 29.2113 59.6801C29.056 59.8354 28.9688 60.046 28.9688 60.2656V63.5781C28.9688 63.7978 29.056 64.0084 29.2113 64.1637C29.3666 64.319 29.5772 64.4062 29.7969 64.4062H33.1094C33.329 64.4062 33.5396 64.319 33.6949 64.1637C33.8503 64.0084 33.9375 63.7978 33.9375 63.5781V60.2656C33.9375 60.046 33.8503 59.8354 33.6949 59.6801C33.5396 59.5247 33.329 59.4375 33.1094 59.4375ZM32.2812 62.75H30.625V61.0938H32.2812V62.75Z" fill="#BF5AF2"/>
<path d="M39.7344 59.4375H36.4219C36.2022 59.4375 35.9916 59.5247 35.8363 59.6801C35.681 59.8354 35.5938 60.046 35.5938 60.2656V63.5781C35.5938 63.7978 35.681 64.0084 35.8363 64.1637C35.9916 64.319 36.2022 64.4062 36.4219 64.4062H39.7344C39.954 64.4062 40.1646 64.319 40.3199 64.1637C40.4753 64.0084 40.5625 63.7978 40.5625 63.5781V60.2656C40.5625 60.046 40.4753 59.8354 40.3199 59.6801C40.1646 59.5247 39.954 59.4375 39.7344 59.4375ZM38.9062 62.75H37.25V61.0938H38.9062V62.75Z" fill="#BF5AF2"/>
<path d="M46.3594 59.4375H43.0469C42.8272 59.4375 42.6166 59.5247 42.4613 59.6801C42.306 59.8354 42.2188 60.046 42.2188 60.2656V63.5781C42.2188 63.7978 42.306 64.0084 42.4613 64.1637C42.6166 64.319 42.8272 64.4062 43.0469 64.4062H46.3594C46.579 64.4062 46.7896 64.319 46.9449 64.1637C47.1003 64.0084 47.1875 63.7978 47.1875 63.5781V60.2656C47.1875 60.046 47.1003 59.8354 46.9449 59.6801C46.7896 59.5247 46.579 59.4375 46.3594 59.4375ZM45.5312 62.75H43.875V61.0938H45.5312V62.75Z" fill="#BF5AF2"/>
<path d="M33.1094 66.0625H29.7969C29.5772 66.0625 29.3666 66.1497 29.2113 66.3051C29.056 66.4604 28.9688 66.671 28.9688 66.8906V70.2031C28.9688 70.4228 29.056 70.6334 29.2113 70.7887C29.3666 70.944 29.5772 71.0312 29.7969 71.0312H33.1094C33.329 71.0312 33.5396 70.944 33.6949 70.7887C33.8503 70.6334 33.9375 70.4228 33.9375 70.2031V66.8906C33.9375 66.671 33.8503 66.4604 33.6949 66.3051C33.5396 66.1497 33.329 66.0625 33.1094 66.0625ZM32.2812 69.375H30.625V67.7188H32.2812V69.375Z" fill="#BF5AF2"/>
<path d="M39.7344 66.0625H36.4219C36.2022 66.0625 35.9916 66.1497 35.8363 66.3051C35.681 66.4604 35.5938 66.671 35.5938 66.8906V70.2031C35.5938 70.4228 35.681 70.6334 35.8363 70.7887C35.9916 70.944 36.2022 71.0312 36.4219 71.0312H39.7344C39.954 71.0312 40.1646 70.944 40.3199 70.7887C40.4753 70.6334 40.5625 70.4228 40.5625 70.2031V66.8906C40.5625 66.671 40.4753 66.4604 40.3199 66.3051C40.1646 66.1497 39.954 66.0625 39.7344 66.0625ZM38.9062 69.375H37.25V67.7188H38.9062V69.375Z" fill="#BF5AF2"/>
<path d="M46.3594 66.0625H43.0469C42.8272 66.0625 42.6166 66.1497 42.4613 66.3051C42.306 66.4604 42.2188 66.671 42.2188 66.8906V70.2031C42.2188 70.4228 42.306 70.6334 42.4613 70.7887C42.6166 70.944 42.8272 71.0312 43.0469 71.0312H46.3594C46.579 71.0312 46.7896 70.944 46.9449 70.7887C47.1003 70.6334 47.1875 70.4228 47.1875 70.2031V66.8906C47.1875 66.671 47.1003 66.4604 46.9449 66.3051C46.7896 66.1497 46.579 66.0625 46.3594 66.0625ZM45.5312 69.375H43.875V67.7188H45.5312V69.375Z" fill="#BF5AF2"/>
<path d="M46.3594 46.1875H29.7969C29.5772 46.1875 29.3666 46.2747 29.2113 46.4301C29.056 46.5854 28.9688 46.796 28.9688 47.0156V50.3281C28.9688 50.5478 29.056 50.7584 29.2113 50.9137C29.3666 51.069 29.5772 51.1562 29.7969 51.1562H46.3594C46.579 51.1562 46.7896 51.069 46.9449 50.9137C47.1003 50.7584 47.1875 50.5478 47.1875 50.3281V47.0156C47.1875 46.796 47.1003 46.5854 46.9449 46.4301C46.7896 46.2747 46.579 46.1875 46.3594 46.1875ZM45.5312 49.5H30.625V47.8438H45.5312V49.5Z" fill="#BF5AF2"/>
<path d="M69.5469 56.125C68.9337 56.1271 68.3433 56.3574 67.8906 56.7709C67.5345 56.4472 67.092 56.2339 66.6169 56.157C66.1418 56.08 65.6546 56.1427 65.2145 56.3374C64.7743 56.5321 64.4002 56.8505 64.1376 57.2538C63.875 57.6572 63.7352 58.1281 63.7352 58.6094C63.7352 59.0906 63.875 59.5616 64.1376 59.9649C64.4002 60.3682 64.7743 60.6866 65.2145 60.8813C65.6546 61.076 66.1418 61.1387 66.6169 61.0618C67.092 60.9848 67.5345 60.7715 67.8906 60.4478C68.1897 60.7196 68.5506 60.9144 68.942 61.0152C69.3334 61.116 69.7435 61.1198 70.1367 61.0262C70.5299 60.9327 70.8943 60.7446 71.1984 60.4783C71.5024 60.212 71.7369 59.8756 71.8815 59.4982C72.0261 59.1208 72.0765 58.7138 72.0282 58.3125C71.9799 57.9112 71.8344 57.5278 71.6044 57.1955C71.3744 56.8631 71.0668 56.5919 70.7082 56.4054C70.3497 56.2188 69.951 56.1226 69.5469 56.125ZM66.2344 59.4375C66.0706 59.4375 65.9105 59.3889 65.7743 59.2979C65.6381 59.2069 65.532 59.0776 65.4693 58.9263C65.4066 58.7749 65.3902 58.6084 65.4222 58.4478C65.4541 58.2872 65.533 58.1396 65.6488 58.0238C65.7646 57.908 65.9122 57.8291 66.0728 57.7971C66.2335 57.7652 66.4 57.7816 66.5513 57.8443C66.7026 57.9069 66.8319 58.0131 66.9229 58.1493C67.0139 58.2855 67.0625 58.4456 67.0625 58.6094C67.0625 58.829 66.9753 59.0396 66.82 59.1949C66.6647 59.3502 66.454 59.4375 66.2344 59.4375ZM69.5469 59.4375C69.3831 59.4375 69.223 59.3889 69.0868 59.2979C68.9506 59.2069 68.8445 59.0776 68.7818 58.9263C68.7191 58.7749 68.7027 58.6084 68.7347 58.4478C68.7666 58.2872 68.8455 58.1396 68.9613 58.0238C69.0771 57.908 69.2247 57.8291 69.3853 57.7971C69.546 57.7652 69.7125 57.7816 69.8638 57.8443C70.0151 57.9069 70.1445 58.0131 70.2354 58.1493C70.3264 58.2855 70.375 58.4456 70.375 58.6094C70.375 58.829 70.2878 59.0396 70.1325 59.1949C69.9772 59.3502 69.7665 59.4375 69.5469 59.4375Z" fill="#BF5AF2"/>
<path d="M32.2812 29.625H33.9375V31.2812H32.2812V29.625Z" fill="#BF5AF2"/>
<path d="M35.5938 29.625H43.875V31.2812H35.5938V29.625Z" fill="#BF5AF2"/>
<path d="M32.2812 32.9375H43.875V34.5938H32.2812V32.9375Z" fill="#BF5AF2"/>
<path d="M32.2812 36.25H43.875V37.9062H32.2812V36.25Z" fill="#BF5AF2"/>
</svg>
