<svg width="100" height="100" viewBox="0 0 100 100" fill="none" xmlns="http://www.w3.org/2000/svg">
<circle opacity="0.1" cx="50" cy="50" r="50" fill="#56CCF2"/>
<g clip-path="url(#clip0)">
<path d="M61.5781 73.5157H59.0937V71.8594H61.5781C62.6759 71.8581 63.7283 71.4215 64.5045 70.6452C65.2807 69.869 65.7174 68.8166 65.7187 67.7188V56.1251C65.7174 55.0273 65.2807 53.9749 64.5045 53.1987C63.7283 52.4224 62.6759 51.9858 61.5781 51.9844H57.4375V50.3282H61.5781C63.115 50.3299 64.5884 50.9412 65.6752 52.028C66.7619 53.1147 67.3732 54.5882 67.375 56.1251V67.7188C67.3732 69.2557 66.7619 70.7291 65.6752 71.8159C64.5884 72.9026 63.115 73.5139 61.5781 73.5157Z" fill="#56CCF2"/>
<path d="M35.9062 73.5157H33.4219C31.885 73.5139 30.4115 72.9026 29.3248 71.8159C28.2381 70.7291 27.6268 69.2557 27.625 67.7188V66.7093L24.9402 66.0377C24.761 65.993 24.6018 65.8897 24.4881 65.7441C24.3744 65.5986 24.3126 65.4192 24.3125 65.2344V60.2657C24.3126 60.081 24.3744 59.9016 24.4881 59.756C24.6018 59.6105 24.761 59.5071 24.9402 59.4624L27.625 58.7908V56.1251C27.6268 54.5882 28.2381 53.1147 29.3248 52.028C30.4115 50.9412 31.885 50.3299 33.4219 50.3282V51.9844C32.3241 51.9858 31.2717 52.4224 30.4955 53.1987C29.7192 53.9749 29.2826 55.0273 29.2812 56.1251V59.4376C29.2812 59.6223 29.2194 59.8017 29.1056 59.9472C28.9919 60.0928 28.8328 60.1961 28.6535 60.2408L25.9688 60.9124V64.5877L28.6535 65.2593C28.8328 65.304 28.9919 65.4073 29.1056 65.5529C29.2194 65.6984 29.2812 65.8778 29.2812 66.0626V67.7188C29.2826 68.8166 29.7192 69.869 30.4955 70.6452C31.2717 71.4215 32.3241 71.8581 33.4219 71.8594H35.9062V73.5157Z" fill="#56CCF2"/>
<path d="M33.5088 54.0109L31.0244 49.0421C30.9613 48.9158 30.9316 48.7755 30.938 48.6345C30.9443 48.4934 30.9867 48.3564 31.0609 48.2363C31.1352 48.1163 31.2389 48.0172 31.3623 47.9485C31.4856 47.8798 31.6244 47.8437 31.7656 47.8438C34.3436 47.8438 39.2187 49.0554 39.2187 53.6407H37.5625C37.5625 50.8151 34.8901 49.9141 33.1734 49.6326L34.9953 53.2705L33.5088 54.0109Z" fill="#56CCF2"/>
<path d="M40.0468 76.0001H36.7343C36.5606 76 36.3913 75.9452 36.2504 75.8435C36.1095 75.7419 36.0042 75.5985 35.9493 75.4337L34.293 70.4649L35.8665 69.9415L37.3314 74.3438H39.4498L40.918 69.9415L42.4915 70.4649L40.8352 75.4337C40.7801 75.599 40.6743 75.7428 40.5327 75.8445C40.3912 75.9462 40.2211 76.0007 40.0468 76.0001Z" fill="#56CCF2"/>
<path d="M58.2656 76.0001H54.9531C54.7794 76 54.6101 75.9452 54.4692 75.8435C54.3283 75.7419 54.2229 75.5985 54.168 75.4337L52.5118 70.4649L54.0852 69.9415L55.5502 74.3438H57.6685L59.1368 69.9415L60.7102 70.4649L59.054 75.4337C58.9989 75.599 58.893 75.7428 58.7515 75.8445C58.6099 75.9462 58.4399 76.0007 58.2656 76.0001Z" fill="#56CCF2"/>
<path d="M43.3593 71.8594H54.125V73.5156H43.3593V71.8594Z" fill="#56CCF2"/>
<path d="M67.8669 31.2101L53.3879 24.7756L45.4901 30.3033L44.5411 28.9468L52.8223 23.15C52.9392 23.0681 53.0753 23.0178 53.2174 23.0041C53.3594 22.9903 53.5026 23.0134 53.6331 23.0713L68.5393 29.6963L67.8669 31.2101Z" fill="#56CCF2"/>
<path d="M61.5781 42.0469C59.4586 42.0214 57.3813 41.4511 55.546 40.3906H49.5703C48.8016 40.3906 48.0643 40.0853 47.5208 39.5417C46.9772 38.9982 46.6718 38.2609 46.6718 37.4922C46.6718 36.7235 46.9772 35.9863 47.5208 35.4427C48.0643 34.8991 48.8016 34.5938 49.5703 34.5938H55.5055L58.5968 32.275L59.5906 33.6L56.2781 36.0844C56.1347 36.1919 55.9604 36.25 55.7812 36.25H49.5703C49.2408 36.25 48.9249 36.3809 48.6919 36.6139C48.459 36.8468 48.3281 37.1628 48.3281 37.4922C48.3281 37.8217 48.459 38.1376 48.6919 38.3706C48.9249 38.6035 49.2408 38.7344 49.5703 38.7344H55.7812C55.9448 38.7347 56.1046 38.783 56.2408 38.8735C57.8561 39.8384 59.6968 40.3616 61.5781 40.3906C63.742 40.3506 65.8956 40.0814 68.0027 39.5874L68.4035 41.1939C66.1658 41.7237 63.8773 42.0097 61.5781 42.0469Z" fill="#56CCF2"/>
<path d="M73.1718 42.8751H68.2031C67.9835 42.8751 67.7728 42.7878 67.6175 42.6325C67.4622 42.4772 67.375 42.2666 67.375 42.0469V28.7969C67.375 28.5773 67.4622 28.3667 67.6175 28.2114C67.7728 28.0561 67.9835 27.9688 68.2031 27.9688H73.1718C73.3915 27.9688 73.6021 28.0561 73.7574 28.2114C73.9127 28.3667 74 28.5773 74 28.7969V42.0469C74 42.2666 73.9127 42.4772 73.7574 42.6325C73.6021 42.7878 73.3915 42.8751 73.1718 42.8751ZM69.0312 41.2188H72.3437V29.6251H69.0312V41.2188Z" fill="#56CCF2"/>
<path d="M69.8593 38.7344H71.5156V40.3907H69.8593V38.7344Z" fill="#56CCF2"/>
<path d="M57.4375 56.1251H40.875C40.6553 56.1251 40.4447 56.0378 40.2894 55.8825C40.1341 55.7272 40.0468 55.5166 40.0468 55.2969V29.6251C40.0468 29.4054 40.1341 29.1948 40.2894 29.0395C40.4447 28.8842 40.6553 28.7969 40.875 28.7969H57.4375C57.6571 28.7969 57.8677 28.8842 58.023 29.0395C58.1783 29.1948 58.2656 29.4054 58.2656 29.6251V34.5938H56.6093V30.4532H41.7031V54.4688H56.6093V40.3907H58.2656V55.2969C58.2656 55.5166 58.1783 55.7272 58.023 55.8825C57.8677 56.0378 57.6571 56.1251 57.4375 56.1251Z" fill="#56CCF2"/>
<path d="M38.3906 54.4688H59.9218V56.1251H38.3906V54.4688Z" fill="#56CCF2"/>
<path d="M61.5781 54.4688H63.2343V56.1251H61.5781V54.4688Z" fill="#56CCF2"/>
<path d="M37.5625 50.3282H40.875V51.9844H37.5625V50.3282Z" fill="#56CCF2"/>
<path d="M53.2968 39.5626H54.9531V55.2969H53.2968V39.5626Z" fill="#56CCF2"/>
<path d="M45.0156 55.2969H43.3593V34.5938C43.3593 34.3742 43.4466 34.1635 43.6019 34.0082C43.7572 33.8529 43.9678 33.7657 44.1875 33.7657C44.4071 33.7657 44.6177 33.6784 44.773 33.5231C44.9283 33.3678 45.0156 33.1572 45.0156 32.9376C45.0156 32.7179 45.1028 32.5073 45.2581 32.352C45.4134 32.1967 45.6241 32.1094 45.8437 32.1094H52.4687C52.6884 32.1094 52.899 32.1967 53.0543 32.352C53.2096 32.5073 53.2968 32.7179 53.2968 32.9376C53.2968 33.1572 53.3841 33.3678 53.5394 33.5231C53.6947 33.6784 53.9053 33.7657 54.125 33.7657C54.3446 33.7657 54.5552 33.8529 54.7105 34.0082C54.8658 34.1635 54.9531 34.3742 54.9531 34.5938V35.4219H53.2968V35.2803C52.9478 35.156 52.6309 34.9556 52.3689 34.6936C52.1069 34.4317 51.9065 34.1147 51.7822 33.7657H46.5302C46.4059 34.1147 46.2055 34.4317 45.9435 34.6936C45.6816 34.9556 45.3646 35.156 45.0156 35.2803V55.2969Z" fill="#56CCF2"/>
<path d="M40.2017 49.9812L31.9205 38.3874C31.8541 38.2944 31.8078 38.1886 31.7843 38.0768C31.7609 37.965 31.7608 37.8495 31.7841 37.7377C31.8075 37.6258 31.8537 37.52 31.9199 37.4269C31.9861 37.3338 32.0709 37.2554 32.1689 37.1966L40.4501 32.2278L41.3031 33.6473L33.7887 38.1547L41.5482 49.0189L40.2017 49.9812Z" fill="#56CCF2"/>
<path d="M31.7656 57.7912L30.1093 57.7813C30.0997 57.4524 30.1574 57.1251 30.2789 56.8193C30.4003 56.5135 30.5829 56.2358 30.8156 56.0032C31.0482 55.7705 31.326 55.5879 31.6317 55.4664C31.9375 55.345 32.2649 55.2873 32.5937 55.2969C32.9226 55.2873 33.2499 55.345 33.5557 55.4664C33.8615 55.5879 34.1392 55.7705 34.3718 56.0032C34.6045 56.2358 34.7871 56.5135 34.9086 56.8193C35.03 57.1251 35.0877 57.4524 35.0781 57.7813H33.4218C33.4328 57.6698 33.4189 57.5573 33.3811 57.4519C33.3434 57.3465 33.2827 57.2507 33.2035 57.1715C33.1243 57.0923 33.0286 57.0316 32.9231 56.9939C32.8177 56.9561 32.7052 56.9422 32.5937 56.9532C32.4814 56.9425 32.3682 56.9569 32.2621 56.9953C32.1561 57.0338 32.06 57.0954 31.9807 57.1756C31.9014 57.2558 31.841 57.3527 31.8038 57.4592C31.7666 57.5657 31.7535 57.6791 31.7656 57.7912Z" fill="#56CCF2"/>
<path d="M49.1562 52.8126C48.0097 52.8126 46.8889 52.4726 45.9357 51.8356C44.9824 51.1986 44.2394 50.2933 43.8006 49.2341C43.3619 48.1748 43.2471 47.0093 43.4707 45.8848C43.6944 44.7603 44.2465 43.7274 45.0572 42.9167C45.8679 42.106 46.9008 41.5539 48.0253 41.3302C49.1498 41.1065 50.3153 41.2213 51.3746 41.6601C52.4338 42.0988 53.3392 42.8418 53.9761 43.7951C54.6131 44.7484 54.9531 45.8692 54.9531 47.0157C54.9513 48.5526 54.34 50.026 53.2533 51.1128C52.1666 52.1995 50.6931 52.8108 49.1562 52.8126ZM49.1562 42.8751C48.3373 42.8751 47.5367 43.1179 46.8558 43.5729C46.1749 44.0279 45.6442 44.6745 45.3308 45.4311C45.0174 46.1877 44.9354 47.0203 45.0952 47.8235C45.2549 48.6267 45.6493 49.3645 46.2284 49.9436C46.8074 50.5226 47.5452 50.917 48.3484 51.0768C49.1516 51.2365 49.9842 51.1545 50.7408 50.8411C51.4974 50.5277 52.144 49.997 52.599 49.3161C53.054 48.6352 53.2968 47.8346 53.2968 47.0157C53.2955 45.9179 52.8589 44.8655 52.0826 44.0893C51.3064 43.313 50.254 42.8764 49.1562 42.8751Z" fill="#56CCF2"/>
<path d="M25.1406 47.0156H23.4844V34.5938H21.8281C21.6644 34.5937 21.5043 34.5451 21.3681 34.4541C21.232 34.3631 21.1259 34.2338 21.0632 34.0825C21.0005 33.9312 20.9841 33.7647 21.0161 33.6041C21.048 33.4435 21.1269 33.296 21.2426 33.1801L25.3833 29.0395C25.5386 28.8843 25.7492 28.7971 25.9688 28.7971C26.1883 28.7971 26.3989 28.8843 26.5542 29.0395L30.6949 33.1801C30.8106 33.296 30.8895 33.4435 30.9214 33.6041C30.9534 33.7647 30.937 33.9312 30.8743 34.0825C30.8116 34.2338 30.7055 34.3631 30.5694 34.4541C30.4332 34.5451 30.2731 34.5937 30.1094 34.5938H28.4531V41.2188H26.7969V33.7656C26.7969 33.546 26.8841 33.3354 27.0394 33.1801C27.1947 33.0248 27.4054 32.9375 27.625 32.9375H28.1103L25.9688 30.796L23.8272 32.9375H24.3125C24.5321 32.9375 24.7428 33.0248 24.8981 33.1801C25.0534 33.3354 25.1406 33.546 25.1406 33.7656V47.0156Z" fill="#56CCF2"/>
<path d="M26.7969 42.8751H28.4531V44.5313H26.7969V42.8751Z" fill="#56CCF2"/>
<path d="M70.6875 56.9531H69.0312V48.6719C69.0312 48.4522 69.1185 48.2416 69.2738 48.0863C69.4291 47.931 69.6397 47.8438 69.8594 47.8438H70.3446L68.2031 45.7022L66.0616 47.8438H66.5469C66.7665 47.8438 66.9771 47.931 67.1324 48.0863C67.2877 48.2416 67.375 48.4522 67.375 48.6719V51.1563H65.7187V49.5H64.0625C63.8987 49.5 63.7386 49.4514 63.6025 49.3604C63.4663 49.2694 63.3602 49.1401 63.2976 48.9888C63.2349 48.8375 63.2185 48.671 63.2504 48.5104C63.2824 48.3498 63.3612 48.2022 63.477 48.0864L67.6176 43.9458C67.7729 43.7905 67.9835 43.7033 68.2031 43.7033C68.4227 43.7033 68.6333 43.7905 68.7886 43.9458L72.9292 48.0864C73.045 48.2022 73.1238 48.3498 73.1558 48.5104C73.1877 48.671 73.1713 48.8375 73.1086 48.9888C73.046 49.1401 72.9399 49.2694 72.8037 49.3604C72.6676 49.4514 72.5075 49.5 72.3437 49.5H70.6875V56.9531Z" fill="#56CCF2"/>
<path d="M69.0312 58.6094H70.6875V60.2657H69.0312V58.6094Z" fill="#56CCF2"/>
<path d="M30.1094 69.3751H28.4531V67.7188H30.1094C30.3306 67.7332 30.5523 67.7002 30.7598 67.622C30.9673 67.5439 31.1557 67.4224 31.3124 67.2656C31.4692 67.1088 31.5907 66.9204 31.6688 66.713C31.747 66.5055 31.78 66.2838 31.7656 66.0626H33.4219C33.4347 66.501 33.3578 66.9375 33.1959 67.3452C33.0339 67.7529 32.7904 68.1232 32.4802 68.4334C32.17 68.7436 31.7997 68.9871 31.392 69.149C30.9843 69.311 30.5479 69.3879 30.1094 69.3751Z" fill="#56CCF2"/>
</g>
<defs>
<clipPath id="clip0">
<rect width="53" height="53" fill="white" transform="translate(21 23)"/>
</clipPath>
</defs>
</svg>
