<svg width="100" height="100" viewBox="0 0 100 100" fill="none" xmlns="http://www.w3.org/2000/svg">
<circle opacity="0.1" cx="50" cy="50" r="50" fill="#FF3B30"/>
<path d="M71.5833 25.2083H27.4167C24.9809 25.2083 23 27.1892 23 29.625V69.375C23 71.8108 24.9809 73.7917 27.4167 73.7917H71.5834C74.0191 73.7917 76 71.8108 76 69.375V29.625C76 27.1892 74.0191 25.2083 71.5833 25.2083ZM73.7917 69.375C73.7917 70.5929 72.8013 71.5833 71.5834 71.5833H27.4167C26.1988 71.5833 25.2084 70.5929 25.2084 69.375V29.625C25.2084 28.4072 26.1988 27.4167 27.4167 27.4167H71.5834C72.8013 27.4167 73.7917 28.4072 73.7917 29.625V69.375Z" fill="#FF453A"/>
<path d="M30.7292 29.625H29.625C29.0155 29.625 28.5208 30.1186 28.5208 30.7292C28.5208 31.3398 29.0155 31.8334 29.625 31.8334H30.7292C31.3387 31.8334 31.8334 31.3398 31.8334 30.7292C31.8333 30.1186 31.3387 29.625 30.7292 29.625Z" fill="#FF453A"/>
<path d="M36.25 29.625H35.1458C34.5363 29.625 34.0416 30.1186 34.0416 30.7292C34.0416 31.3398 34.5363 31.8334 35.1458 31.8334H36.25C36.8595 31.8334 37.3542 31.3398 37.3542 30.7292C37.3542 30.1186 36.8595 29.625 36.25 29.625Z" fill="#FF453A"/>
<path d="M69.375 29.625H68.2708C67.6601 29.625 67.1666 30.1186 67.1666 30.7292C67.1666 31.3398 67.6601 31.8334 68.2708 31.8334H69.375C69.9856 31.8334 70.4792 31.3398 70.4792 30.7292C70.4792 30.1186 69.9856 29.625 69.375 29.625Z" fill="#FF453A"/>
<path d="M70.4792 34.0417H28.5208C27.9113 34.0417 27.4166 34.5352 27.4166 35.1459C27.4166 35.7565 27.9113 36.2501 28.5208 36.2501H70.4791C71.0897 36.2501 71.5833 35.7565 71.5833 35.1459C71.5833 34.5352 71.0897 34.0417 70.4792 34.0417Z" fill="#FF453A"/>
<path d="M59.4375 46.1875C58.8269 46.1875 58.3333 46.6811 58.3333 47.2917V58.3334C58.3333 58.944 58.8269 59.4376 59.4375 59.4376C60.0481 59.4376 60.5417 58.944 60.5417 58.3334V47.2917C60.5417 46.6811 60.0481 46.1875 59.4375 46.1875Z" fill="#FF453A"/>
<path d="M51.7083 46.1875H48.3958C47.7863 46.1875 47.2916 46.6811 47.2916 47.2917V58.3334C47.2916 58.944 47.7863 59.4376 48.3958 59.4376C49.0053 59.4376 49.5 58.9439 49.5 58.3333V55.0208H51.7083C54.1385 55.0208 55.0208 53.0399 55.0208 51.7083V49.5C55.0208 47.0698 53.0399 46.1875 51.7083 46.1875ZM52.8125 51.695C52.7992 52.2052 52.5983 52.8125 51.7083 52.8125H49.5V48.3958H51.695C52.2052 48.409 52.8125 48.6101 52.8125 49.5V51.695Z" fill="#FF453A"/>
<path d="M61.6458 46.1875H57.2291C56.6184 46.1875 56.1249 46.6811 56.1249 47.2917C56.1249 47.9023 56.6184 48.3959 57.2291 48.3959H61.6458C62.2564 48.3959 62.75 47.9023 62.75 47.2917C62.75 46.6811 62.2564 46.1875 61.6458 46.1875Z" fill="#FF453A"/>
<path d="M61.6458 57.2292H57.2291C56.6184 57.2292 56.1249 57.7228 56.1249 58.3334C56.1249 58.944 56.6184 59.4376 57.2291 59.4376H61.6458C62.2564 59.4376 62.75 58.944 62.75 58.3334C62.75 57.7228 62.2564 57.2292 61.6458 57.2292Z" fill="#FF453A"/>
<path d="M40.6667 46.1875C38.2309 46.1875 36.25 48.1684 36.25 50.6042V58.3334C36.25 58.944 36.7447 59.4376 37.3542 59.4376C37.9637 59.4376 38.4584 58.944 38.4584 58.3334V50.6042C38.4584 49.3863 39.4488 48.3959 40.6667 48.3959C41.8846 48.3959 42.875 49.3863 42.875 50.6042V58.3334C42.875 58.944 43.3697 59.4376 43.9792 59.4376C44.5887 59.4376 45.0834 58.944 45.0834 58.3334V50.6042C45.0833 48.1684 43.1024 46.1875 40.6667 46.1875Z" fill="#FF453A"/>
<path d="M43.9792 52.8125H37.3542C36.7447 52.8125 36.25 53.3061 36.25 53.9167C36.25 54.5273 36.7447 55.0209 37.3542 55.0209H43.9792C44.5887 55.0209 45.0834 54.5273 45.0834 53.9167C45.0833 53.3061 44.5887 52.8125 43.9792 52.8125Z" fill="#FF453A"/>
</svg>
