<svg width="70" height="70" viewBox="0 0 70 70" fill="none" xmlns="http://www.w3.org/2000/svg">
<circle opacity="0.1" cx="35" cy="35" r="35" fill="#219653"/>
<g clip-path="url(#clip0)">
<path d="M22.277 22.366C22.7991 22.8876 23.6061 22.08 23.0839 21.5584L21.5912 20.0672C21.069 19.5456 20.2621 20.3532 20.7843 20.8748L22.277 22.366Z" fill="#219653"/>
<path d="M16.2102 29.4448L18.2492 29.9907C18.9372 30.1747 19.2497 29.0767 18.5444 28.8879L16.5054 28.342C15.7925 28.1514 15.4972 29.2539 16.2102 29.4448Z" fill="#219653"/>
<path d="M18.2817 37.5027L16.2427 38.0484C15.5391 38.2368 15.856 39.3339 16.5378 39.1512L18.5768 38.6055C19.2898 38.4146 18.9945 37.3119 18.2817 37.5027Z" fill="#219653"/>
<path d="M22.3663 45.0948L20.8736 46.5859C20.3514 47.1075 21.1584 47.9151 21.6805 47.3935L23.1731 45.9024C23.6953 45.3809 22.8884 44.5731 22.3663 45.0948Z" fill="#219653"/>
<path d="M46.7332 45.0057C46.2111 44.484 45.4042 45.2918 45.9263 45.8133L47.419 47.3044C47.941 47.8261 48.7481 47.0184 48.2258 46.4968L46.7332 45.0057Z" fill="#219653"/>
<path d="M52.8007 37.9269L50.7617 37.3811C50.0487 37.1904 49.7536 38.293 50.4666 38.4839L52.5056 39.0297C53.1935 39.2139 53.5059 38.1157 52.8007 37.9269Z" fill="#219653"/>
<path d="M50.5807 29.8885C50.6295 29.8885 50.6792 29.8822 50.7286 29.869L52.7677 29.3231C53.4806 29.1322 53.1853 28.029 52.4724 28.2203L50.4334 28.7662C49.7946 28.9372 49.9429 29.8885 50.5807 29.8885Z" fill="#219653"/>
<path d="M46.2413 22.444C46.3872 22.444 46.5332 22.3884 46.6447 22.277L48.1374 20.7858C48.6596 20.2642 47.8526 19.4566 47.3305 19.9782L45.8378 21.4694C45.4987 21.8081 45.7619 22.444 46.2413 22.444Z" fill="#219653"/>
<path d="M38.6081 18.1452C38.8876 18.2203 39.2318 18.0235 39.3074 17.7418L39.8537 15.7048C40.0448 14.9919 38.9423 14.6962 38.7511 15.409L38.2047 17.4459C38.123 17.7505 38.3036 18.0636 38.6081 18.1452Z" fill="#219653"/>
<path d="M29.5813 17.7744C29.7692 18.4748 30.8757 18.1937 30.6839 17.4785L30.1375 15.4416C29.9463 14.7288 28.8437 15.0245 29.0349 15.7374L29.5813 17.7744Z" fill="#219653"/>
<path d="M47.2464 29.268C47.2464 26.7072 45.4978 24.5468 43.131 23.9158C42.9618 22.9009 42.4581 21.9706 41.691 21.2683C39.5174 19.2226 35.8652 19.8855 34.5055 22.4537C34.3816 22.2277 34.2386 22.0116 34.0774 21.8086C32.9099 20.3367 30.9168 19.7096 29.1177 20.2473C27.4353 20.7504 26.1687 22.2023 25.8795 23.9184C24.9138 24.1772 24.0222 24.6942 23.32 25.4206C22.8083 25.95 23.6258 26.7466 24.1408 26.2141C24.9659 25.3606 26.1202 24.8711 27.3077 24.8711C28.0632 24.8451 28.0633 23.7555 27.3077 23.7295H27.0912C27.4148 22.6046 28.3025 21.6827 29.4448 21.3411C30.8005 20.9356 32.303 21.4086 33.1832 22.5181C33.6466 23.1022 33.9113 23.8284 33.9343 24.5737L33.9342 43.0706C33.8916 44.4226 33.0381 45.6655 31.7837 46.186C30.4833 46.7258 28.9039 46.3942 27.9281 45.3774C27.5325 44.9652 27.2452 44.4609 27.0902 43.9169H27.3076C28.0367 43.9169 28.051 42.7942 27.3222 42.7754C25.602 42.7315 24.0881 41.8134 23.3711 40.3795C23.0694 39.7762 22.9881 39.1919 22.8977 38.5334C22.8455 36.3112 22.8673 34.0739 22.8885 31.9098C22.8976 30.9749 22.907 30.0084 22.9106 29.0459C22.9134 28.3076 21.7719 28.3042 21.769 29.0416C21.7573 32.247 21.6808 35.3469 21.7571 38.5935C21.8163 40.9855 23.5383 43.122 25.8766 43.7129C26.027 44.6307 26.4563 45.4928 27.1043 46.1681C27.7572 46.8483 28.5942 47.2968 29.4859 47.4863C29.4646 47.9528 29.6211 48.4138 29.9357 48.7612C28.9947 49.7787 29.6246 51.4815 30.9968 51.6502C30.5604 52.7507 31.4337 54.0235 32.6241 53.9997H36.3861C37.5759 54.0236 38.4507 52.7504 38.0135 51.6501C39.3863 51.4812 40.0151 49.7781 39.0746 48.7611C39.3875 48.4154 39.5445 47.957 39.5244 47.4925C41.3416 47.1334 42.8506 45.5619 43.1309 43.7306C45.4977 43.0996 47.2463 40.9391 47.2463 38.3784V29.268H47.2464ZM36.3863 52.858H32.6243C31.8451 52.8315 31.8301 51.7141 32.6062 51.6649H36.4044C37.1811 51.7143 37.1649 52.8318 36.3863 52.858ZM37.7863 50.5233H31.2243C30.4696 50.5005 30.4202 49.4276 31.1659 49.3328C31.1853 49.3335 31.2048 49.3338 31.2243 49.3338H34.0487C34.7867 49.3338 34.7867 48.1922 34.0487 48.1922H31.2908C30.9303 48.1504 30.6893 47.962 30.6277 47.586C31.1676 47.5669 31.7079 47.4535 32.2213 47.2404C33.2035 46.8329 34.0006 46.0914 34.5006 45.1834C35.2608 46.5682 36.7093 47.5244 38.383 47.589C38.2919 48.0876 38.0033 48.1916 37.5497 48.1922C36.8116 48.1922 36.8116 49.3338 37.5497 49.3338C37.6478 49.3343 37.7466 49.3361 37.8447 49.3328C38.5904 49.4277 38.5412 50.5004 37.7863 50.5233ZM46.1048 38.3783C46.1048 40.8028 44.1301 42.7752 41.7028 42.7752C40.9476 42.801 40.9471 43.8908 41.7028 43.9168H41.9225C40.7951 47.7109 35.2661 47.0453 35.0762 43.07L35.0763 24.5748C35.2688 20.5977 40.797 19.9384 41.9225 23.7294H41.7028C41.3876 23.7294 41.132 23.9849 41.132 24.3002C41.132 24.6155 41.3876 24.871 41.7028 24.871C44.1301 24.871 46.1048 26.8435 46.1048 29.2679V38.3783Z" fill="#219653"/>
<path d="M42.0269 37.9817C39.5059 37.9817 37.4551 40.0308 37.4551 42.5494C37.4551 42.8647 37.7107 43.1202 38.0259 43.1202C38.3411 43.1202 38.5967 42.8647 38.5967 42.5494C38.5967 40.6603 40.1355 39.1233 42.0269 39.1233C42.7809 39.0984 42.7836 38.0079 42.0269 37.9817Z" fill="#219653"/>
<path d="M26.9837 39.1233C28.8751 39.1233 30.4138 40.6603 30.4138 42.5494C30.4138 42.8647 30.6694 43.1202 30.9847 43.1202C31.2999 43.1202 31.5555 42.8647 31.5555 42.5494C31.5555 40.0308 29.5046 37.9817 26.9837 37.9817C26.2287 38.0079 26.2275 39.0968 26.9837 39.1233Z" fill="#219653"/>
<path d="M30.9844 25.0922C30.6691 25.0922 30.4136 25.3477 30.4136 25.663C30.4136 27.5521 28.8748 29.0891 26.9834 29.0891C26.6682 29.0891 26.4126 29.3446 26.4126 29.6599C26.4126 29.9752 26.6682 30.2307 26.9834 30.2307C29.5044 30.2307 31.5552 28.1816 31.5552 25.663C31.5552 25.3477 31.2996 25.0922 30.9844 25.0922Z" fill="#219653"/>
<path d="M42.0269 29.0891C40.1355 29.0891 38.5967 27.5521 38.5967 25.663C38.5967 25.3477 38.3411 25.0922 38.0259 25.0922C37.7107 25.0922 37.4551 25.3477 37.4551 25.663C37.4551 28.1816 39.506 30.2307 42.0269 30.2307C42.7818 30.2046 42.7831 29.1156 42.0269 29.0891Z" fill="#219653"/>
<path d="M31.3887 31.6042C31.1658 31.3812 30.8045 31.3809 30.5814 31.6038C29.9876 32.197 29.6606 32.9851 29.6606 33.8231C29.6606 34.6611 29.9876 35.4493 30.5814 36.0425C31.1035 36.5641 31.9105 35.7565 31.3883 35.2349C30.6122 34.4907 30.6122 33.1557 31.3883 32.4114C31.6113 32.1887 31.6115 31.8272 31.3887 31.6042Z" fill="#219653"/>
<path d="M37.59 36.0422C37.8591 36.2652 38.1282 36.2653 38.3973 36.0425C39.6169 34.8733 39.6169 32.773 38.3973 31.6038C37.8752 31.0822 37.0682 31.8898 37.5904 32.4114C38.3666 33.1558 38.3666 34.4907 37.5904 35.235C37.3674 35.4577 37.3673 35.8191 37.59 36.0422Z" fill="#219653"/>
</g>
<defs>
<clipPath id="clip0">
<rect width="39" height="39" fill="white" transform="translate(15 15)"/>
</clipPath>
</defs>
</svg>
