<svg width="70" height="70" viewBox="0 0 70 70" fill="none" xmlns="http://www.w3.org/2000/svg">
<circle opacity="0.1" cx="35" cy="35" r="35" fill="#F24CC4"/>
<path d="M54.4287 16H52.0481C51.8999 16 51.7574 16.0576 51.6509 16.1607L47.3084 20.3622C47.0816 20.5816 47.0757 20.9433 47.2951 21.17C47.5144 21.3967 47.876 21.4027 48.1029 21.1833L52.2792 17.1426H53.8574V31.1255L52.7347 32.2202L44.8475 24.333L46.3514 22.8779C46.5782 22.6585 46.5842 22.2968 46.3648 22.0701C46.1453 21.8432 45.7837 21.8373 45.557 22.0567L43.6357 23.9156C43.5256 24.0221 43.4629 24.1684 43.4616 24.3215C43.4603 24.4747 43.5206 24.6219 43.6289 24.7301L44.0636 25.1648L41.683 27.5461C40.7268 27.0094 39.5042 26.747 37.7571 26.9871L29.7846 28.0854L26.9002 25.2011L27.3711 24.7302C27.4794 24.622 27.5397 24.4747 27.5384 24.3215C27.5371 24.1684 27.4745 24.0222 27.3643 23.9157L22.4371 19.1483C22.2104 18.929 21.8486 18.9349 21.6293 19.1617C21.4099 19.3884 21.4158 19.7501 21.6426 19.9695L26.1526 24.333L18.2653 32.2202L17.1426 31.1255V17.1426H18.7208L19.8912 18.275C20.118 18.4945 20.4797 18.4885 20.699 18.2617C20.9184 18.0349 20.9125 17.6733 20.6857 17.4539L19.3491 16.1607C19.2426 16.0576 19.1002 16 18.9519 16H16.5713C16.2558 16 16 16.2558 16 16.5713V31.3663C16 31.5203 16.0622 31.6678 16.1725 31.7753L17.8715 33.4321C17.9825 33.5403 18.1265 33.5943 18.2703 33.5943C18.4166 33.5943 18.5628 33.5385 18.6743 33.427L19.1393 32.962L22.3855 36.2081C21.8965 36.9208 21.6325 37.7628 21.6323 38.6457C21.6319 39.8002 22.0812 40.8854 22.8971 41.7015L23.0461 41.8504L22.3157 42.5809C21.3743 43.5222 21.3743 45.054 22.3157 45.9953L22.3324 46.012C22.7471 46.4268 23.2762 46.6585 23.8192 46.7079C23.5566 47.5399 23.7538 48.4869 24.4123 49.1454L24.4289 49.162C24.8848 49.6181 25.4912 49.8692 26.1361 49.8692C26.5091 49.8692 26.8689 49.7847 27.1944 49.6257C27.2732 50.1105 27.4986 50.5759 27.8717 50.949C28.3447 51.4221 28.9659 51.6586 29.5872 51.6586C29.8006 51.6586 30.0138 51.63 30.2211 51.5742C30.2559 52.145 30.4904 52.706 30.9257 53.1413C31.3839 53.5996 31.993 53.852 32.641 53.8522H32.6417C33.2847 53.8522 33.8893 53.6033 34.3468 53.1509L35.4865 54.2902C35.9437 54.7478 36.5517 54.9998 37.1987 54.9998C37.8456 54.9998 38.4537 54.7479 38.9112 54.2904L38.9171 54.2845C39.3533 53.8487 39.6022 53.2758 39.6246 52.6627C39.8013 52.7032 39.9839 52.7246 40.1697 52.7246C40.8112 52.7246 41.4144 52.4769 41.8703 52.0267C41.8766 52.0208 41.8829 52.0149 41.889 52.0088C42.3506 51.5467 42.5857 50.9428 42.5954 50.3358C42.7542 50.3678 42.9156 50.3842 43.0771 50.3842C43.6976 50.3842 44.3183 50.1478 44.7912 49.675L44.7962 49.6699C45.4864 48.9798 45.6714 47.9735 45.3527 47.1131C45.8921 47.0505 46.3914 46.8105 46.7812 46.4208L46.7875 46.4145C47.7317 45.4703 47.7317 43.9338 46.7875 42.9896L45.6481 41.8503L47.2192 40.2792C48.3583 39.14 48.8352 37.5863 48.6526 36.0983L51.8252 32.9263L52.3256 33.4268C52.437 33.5383 52.5833 33.5941 52.7296 33.5941C52.8734 33.5941 53.0174 33.5401 53.1284 33.4319L54.8275 31.7751C54.9378 31.6676 54.9999 31.5201 54.9999 31.3661V16.5713C55 16.2558 54.7442 16 54.4287 16V16ZM26.0923 26.0091L28.3644 28.2812L27.9217 28.3422C27.2226 28.4385 26.6029 28.8009 26.1767 29.3627C25.7504 29.9247 25.5688 30.619 25.6654 31.3175C25.7203 31.7149 25.8617 32.0864 26.077 32.4114L23.1407 35.3477L19.9472 32.1541L26.0923 26.0091ZM23.1236 45.1875C22.6277 44.6917 22.6277 43.8848 23.1236 43.3889L24.2571 42.2554C24.2574 42.2551 24.2577 42.2548 24.258 42.2545C24.2583 42.2542 24.2586 42.2539 24.2589 42.2536L26.4054 40.1071C26.6548 39.8577 26.9824 39.733 27.3099 39.733C27.6375 39.733 27.9651 39.8577 28.2145 40.1071L28.2207 40.1133C28.7195 40.6121 28.7195 41.4237 28.2207 41.9224L27.6941 42.4491C27.6941 42.4491 27.694 42.4492 27.6939 42.4492L24.9388 45.2043C24.443 45.7002 23.6362 45.7001 23.1403 45.2042L23.1236 45.1875ZM26.136 48.7267C25.7963 48.7267 25.4769 48.5944 25.2367 48.3542L25.2201 48.3376C24.9798 48.0973 24.8475 47.7779 24.8475 47.4382C24.8475 47.0985 24.9798 46.7791 25.2201 46.5388L25.7466 46.0122C25.7466 46.0122 25.7467 46.0121 25.7468 46.012L28.5019 43.257C28.7512 43.0077 29.0788 42.883 29.4063 42.883C29.7339 42.883 30.0615 43.0077 30.3109 43.257L30.3171 43.2633C30.8159 43.7621 30.8159 44.5736 30.3171 45.0724L27.0354 48.3541C26.7952 48.5944 26.4758 48.7267 26.136 48.7267ZM28.6796 50.1411C28.1791 49.6406 28.1788 48.8267 28.6789 48.3265L31.6522 45.3532C31.9011 45.1043 32.2285 44.9798 32.5561 44.9798C32.8827 44.9798 33.2094 45.1036 33.4585 45.3512C33.7014 45.5925 33.8355 45.9138 33.8363 46.2559C33.8372 46.5977 33.7048 46.9192 33.4637 47.1613L30.4943 50.1418C29.9941 50.642 29.1801 50.6416 28.6796 50.1411ZM32.6417 52.7097H32.6413C32.2985 52.7096 31.9762 52.576 31.7337 52.3335C31.4912 52.091 31.3576 51.7687 31.3575 51.4259C31.3575 51.0832 31.4908 50.7611 31.733 50.5189L34.7063 47.5456C34.9552 47.2967 35.2826 47.1722 35.6101 47.1722C35.9367 47.1722 36.2635 47.296 36.5126 47.5435C36.7553 47.7848 36.8895 48.1062 36.8903 48.4483C36.8911 48.7901 36.7588 49.1116 36.5177 49.3537L33.9459 51.935C33.9446 51.9362 33.9432 51.9373 33.9419 51.9386C33.9405 51.9399 33.9394 51.9415 33.938 51.9428L33.5481 52.3342C33.3062 52.5764 32.9842 52.7097 32.6417 52.7097ZM38.1094 53.4765L38.1033 53.4826C37.8616 53.7243 37.5403 53.8574 37.1988 53.8574C36.8573 53.8574 36.5363 53.7243 36.2946 53.4824L35.1535 52.3419L36.9651 50.5236L38.1096 51.6682C38.3511 51.9095 38.4842 52.2305 38.4842 52.5723C38.4842 52.9139 38.3512 53.2349 38.1094 53.4765ZM46.4114 39.4714L44.8403 41.0426L43.1541 39.3563C42.931 39.1332 42.5693 39.1332 42.3463 39.3563C42.1231 39.5794 42.1231 39.9411 42.3463 40.1642L44.4348 42.2527C44.4353 42.2532 44.4358 42.2539 44.4363 42.2545C44.4369 42.255 44.4375 42.2555 44.438 42.256L45.9796 43.7976C46.4783 44.2963 46.4783 45.1079 45.9796 45.6066L45.9733 45.6129C45.4746 46.1117 44.663 46.1117 44.1642 45.6129L40.8825 42.3312C40.6594 42.1081 40.2977 42.1081 40.0747 42.3312C39.8515 42.5543 39.8515 42.916 40.0747 43.139L40.7053 43.7697C40.7058 43.7702 40.7062 43.7707 40.7067 43.7712L43.9884 47.053C44.23 47.2946 44.363 47.6158 44.363 47.9575C44.363 48.2992 44.2299 48.6205 43.9871 48.8633L43.9821 48.8683C43.4833 49.3671 42.6717 49.367 42.173 48.8683L41.8922 48.5875C41.891 48.5863 41.8899 48.585 41.8888 48.5838L41.0824 47.7777L38.8913 45.5865C38.8896 45.5849 38.8878 45.5835 38.8861 45.5818L38.6065 45.3023C38.3834 45.0791 38.0217 45.0791 37.7986 45.3023C37.5755 45.5254 37.5756 45.8872 37.7987 46.1102L40.4047 48.7157L41.082 49.393C41.5759 49.8888 41.5787 50.6922 41.0903 51.1915C41.0847 51.1967 41.0792 51.202 41.0738 51.2073C40.8325 51.4489 40.5114 51.5819 40.1697 51.5819C39.828 51.5819 39.5069 51.4489 39.265 51.2066L37.7129 49.6552C37.9224 49.291 38.0341 48.8768 38.033 48.4453C38.0314 47.7976 37.7775 47.1895 37.3181 46.7329C36.6835 46.1021 35.7827 45.8968 34.9744 46.1151C34.9398 45.5194 34.6907 44.9646 34.264 44.5405C33.6039 43.8844 32.6559 43.6885 31.8234 43.951C31.7748 43.405 31.5423 42.8722 31.1251 42.4552L31.1189 42.4489C30.7019 42.0319 30.1693 41.7994 29.6233 41.7507C29.887 40.916 29.6892 39.9657 29.0287 39.3052L29.0224 39.2989C28.0782 38.3547 26.5418 38.3547 25.5975 39.2989L23.8541 41.0423L23.7051 40.8933C22.466 39.6542 22.4667 37.6373 23.7066 36.3974L26.8992 33.2047C27.4214 33.5266 28.0338 33.656 28.6493 33.57L33.4801 32.8948C33.8163 32.8478 34.1598 32.9722 34.3984 33.2276C35.0992 33.9778 35.9873 34.5038 36.9512 34.7689L40.6234 38.4411C40.7349 38.5527 40.8812 38.6085 41.0273 38.6085C41.1735 38.6085 41.3198 38.5527 41.4313 38.4411C41.6544 38.218 41.6544 37.8563 41.4313 37.6333L38.7527 34.9547C38.8836 34.9462 39.0146 34.9334 39.1455 34.9153C39.4581 34.8723 39.6766 34.584 39.6335 34.2714C39.5904 33.9588 39.302 33.7404 38.9896 33.7835C37.5979 33.975 36.1937 33.4758 35.2333 32.4476C34.741 31.9206 34.0262 31.6647 33.3219 31.7632L28.4912 32.4385C28.093 32.494 27.6977 32.3914 27.3774 32.1493C27.058 31.9079 26.852 31.5568 26.7972 31.1607C26.7425 30.7649 26.8454 30.3715 27.087 30.0529C27.3289 29.7342 27.6807 29.5285 28.0776 29.4737L37.9129 28.1189C40.9462 27.7019 41.8947 28.9098 43.3305 30.7377C43.5034 30.9577 43.6821 31.1852 43.87 31.4161C43.8825 31.4315 43.8957 31.4461 43.9094 31.4598L43.9093 31.4598L46.4099 33.9597C47.9293 35.4803 47.9301 37.9527 46.4114 39.4714ZM48.3212 34.8143C48.0754 34.2092 47.7078 33.6424 47.2177 33.1522L44.7401 30.6753C44.5642 30.4587 44.3938 30.242 44.2291 30.0322C43.7199 29.384 43.2203 28.7491 42.6235 28.2216L44.8716 25.973L51.0173 32.1187L48.3212 34.8143Z" fill="#F24CC4"/>
</svg>
