<svg width="121" height="34" viewBox="0 0 121 34" fill="none" xmlns="http://www.w3.org/2000/svg">
<path fill-rule="evenodd" clip-rule="evenodd" d="M3.44347 0.207153C2.01793 0.207153 0.862305 1.36278 0.862305 2.78831V23.2135C0.862305 24.639 2.01793 25.7946 3.44347 25.7946H3.56217C3.94321 26.0164 4.38621 26.1435 4.85889 26.1435H30.8321C32.2577 26.1435 33.4133 24.9879 33.4133 23.5623V4.15349C33.4133 4.00111 33.4001 3.85182 33.3748 3.7067V2.78831C33.3748 1.36278 32.2191 0.207153 30.7936 0.207153H3.44347ZM33.3748 3.7067C33.1632 2.49411 32.1053 1.57233 30.8321 1.57233H4.85889C3.43335 1.57233 2.27773 2.72795 2.27773 4.15349V23.5623C2.27773 24.5152 2.79404 25.3475 3.56217 25.7946H30.7936C32.2191 25.7946 33.3748 24.639 33.3748 23.2135V3.7067Z" fill="#FF6600"/>
<path d="M6.22257 2.88649C5.16099 3.13972 3.97384 4.19669 3.51725 5.29769L3.25471 5.92527L3.22046 15.5811C3.18622 26.3049 3.1748 26.1398 3.92818 27.2628C4.31629 27.8574 4.90986 28.3748 5.53768 28.6941C6.30247 29.0685 7.14717 29.1015 15.4914 29.1015H23.7444V31.4687C23.7444 33.7037 23.7558 33.8358 23.9498 33.7367C24.0526 33.6707 24.8174 33.0761 25.6278 32.3935C26.4497 31.7219 27.6825 30.698 28.3902 30.1365L29.6573 29.1015H30.9586C33.173 29.1015 34.189 28.8042 35.125 27.8684C35.3875 27.6151 35.7528 27.0977 35.924 26.7343L36.2436 26.0737V15.8894V5.70507L35.8669 4.96739C35.456 4.15264 34.7483 3.47002 33.9036 3.08467L33.3899 2.84244L19.9775 2.82043C12.6035 2.82043 6.41662 2.84244 6.22257 2.88649ZM17.6032 9.28334L17.6374 12.9167L19.9204 10.4724C22.4887 7.71991 23.2307 6.92719 23.9727 6.16749L24.4863 5.63901L25.8333 5.67204L27.1688 5.70507L26.1187 6.86113C24.7945 8.31446 19.9204 13.6433 19.5551 14.0287L19.2812 14.315L21.1874 16.8363C24.6804 21.4495 27.5798 25.303 27.6711 25.4351C27.7396 25.5452 27.4428 25.5783 26.3355 25.5783H24.9201L23.185 23.3542C22.2262 22.1211 20.5825 20.0182 19.5323 18.675L17.6374 16.2307L17.6032 20.899L17.5803 25.5783H16.4389H15.2974V22.1101V18.6419H13.5281H11.7588V17.4859V16.3298H13.5281H15.2974V15.1737V14.0177H13.5281H11.7588V12.8066V11.5955H13.5281H15.2974V8.62274V5.65002H16.4389H17.5803L17.6032 9.28334Z" fill="#003399"/>
<path d="M57.5964 23H54.025L51.2258 18.1737V23H48.0083V11.7387H51.2258V16.2432L53.8641 11.7387H57.4355L54.0893 17.2085L57.5964 23ZM61.3258 23.2252C60.1246 23.2252 59.1004 22.8177 58.2531 22.0026C57.4166 21.1875 56.9983 20.1793 56.9983 18.9781C56.9983 17.7769 57.4166 16.7688 58.2531 15.9537C59.0897 15.1386 60.1139 14.731 61.3258 14.731C62.5377 14.731 63.562 15.1386 64.3985 15.9537C65.2351 16.7688 65.6534 17.7769 65.6534 18.9781C65.6534 20.1793 65.2351 21.1875 64.3985 22.0026C63.562 22.8177 62.5377 23.2252 61.3258 23.2252ZM60.3445 20.0077C60.6019 20.2651 60.929 20.3938 61.3258 20.3938C61.7226 20.3938 62.0444 20.2651 62.2911 20.0077C62.5485 19.7396 62.6772 19.3964 62.6772 18.9781C62.6772 18.5599 62.5485 18.222 62.2911 17.9646C62.0444 17.6965 61.7226 17.5624 61.3258 17.5624C60.929 17.5624 60.6019 17.6965 60.3445 17.9646C60.0978 18.222 59.9745 18.5599 59.9745 18.9781C59.9745 19.3964 60.0978 19.7396 60.3445 20.0077ZM66.59 23V11.2561H69.5661V23H66.59ZM74.7897 23.2252C73.5885 23.2252 72.5642 22.8177 71.717 22.0026C70.8804 21.1875 70.4621 20.1793 70.4621 18.9781C70.4621 17.7769 70.8804 16.7688 71.717 15.9537C72.5535 15.1386 73.5778 14.731 74.7897 14.731C76.0016 14.731 77.0258 15.1386 77.8624 15.9537C78.6989 16.7688 79.1172 17.7769 79.1172 18.9781C79.1172 20.1793 78.6989 21.1875 77.8624 22.0026C77.0258 22.8177 76.0016 23.2252 74.7897 23.2252ZM73.8083 20.0077C74.0657 20.2651 74.3929 20.3938 74.7897 20.3938C75.1865 20.3938 75.5083 20.2651 75.7549 20.0077C76.0123 19.7396 76.141 19.3964 76.141 18.9781C76.141 18.5599 76.0123 18.222 75.7549 17.9646C75.5083 17.6965 75.1865 17.5624 74.7897 17.5624C74.3929 17.5624 74.0657 17.6965 73.8083 17.9646C73.5617 18.222 73.4383 18.5599 73.4383 18.9781C73.4383 19.3964 73.5617 19.7396 73.8083 20.0077ZM89.5454 14.731C90.4785 14.731 91.2078 15.026 91.7333 15.6158C92.2589 16.195 92.5216 17.0262 92.5216 18.1094V23H89.5454V18.5116C89.5454 17.9003 89.2719 17.5946 88.725 17.5946C88.0922 17.5946 87.7758 17.9914 87.7758 18.7851V23H84.7996V18.5116C84.7996 17.9003 84.5261 17.5946 83.9792 17.5946C83.3464 17.5946 83.03 17.9914 83.03 18.7851V23H80.0538V14.9563H83.03V15.7124C83.5555 15.0581 84.2848 14.731 85.2179 14.731C86.1402 14.731 86.8106 15.0635 87.2288 15.7284C87.808 15.0635 88.5802 14.731 89.5454 14.731ZM97.6641 23.2252C96.4629 23.2252 95.4387 22.8177 94.5914 22.0026C93.7548 21.1875 93.3366 20.1793 93.3366 18.9781C93.3366 17.7769 93.7548 16.7688 94.5914 15.9537C95.4279 15.1386 96.4522 14.731 97.6641 14.731C98.876 14.731 99.9003 15.1386 100.737 15.9537C101.574 16.7688 101.992 17.7769 101.992 18.9781C101.992 20.1793 101.574 21.1875 100.737 22.0026C99.9003 22.8177 98.876 23.2252 97.6641 23.2252ZM96.6828 20.0077C96.9402 20.2651 97.2673 20.3938 97.6641 20.3938C98.0609 20.3938 98.3827 20.2651 98.6293 20.0077C98.8867 19.7396 99.0154 19.3964 99.0154 18.9781C99.0154 18.5599 98.8867 18.222 98.6293 17.9646C98.3827 17.6965 98.0609 17.5624 97.6641 17.5624C97.2673 17.5624 96.9402 17.6965 96.6828 17.9646C96.4361 18.222 96.3127 18.5599 96.3127 18.9781C96.3127 19.3964 96.4361 19.7396 96.6828 20.0077ZM108.06 14.731C108.94 14.731 109.642 15.0367 110.168 15.648C110.704 16.2486 110.972 17.1495 110.972 18.3507V23H107.996V18.6725C107.996 17.9539 107.664 17.5946 106.999 17.5946C106.645 17.5946 106.371 17.7072 106.178 17.9324C105.996 18.1577 105.905 18.4687 105.905 18.8655V23H102.928V14.9563H105.905V15.7445C106.398 15.0689 107.117 14.731 108.06 14.731ZM113.678 14.3449C113.228 14.3449 112.836 14.184 112.504 13.8623C112.182 13.5298 112.021 13.1437 112.021 12.704C112.021 12.2643 112.182 11.8835 112.504 11.5618C112.836 11.2293 113.228 11.0631 113.678 11.0631C114.118 11.0631 114.498 11.2293 114.82 11.5618C115.153 11.8835 115.319 12.2643 115.319 12.704C115.319 13.1437 115.153 13.5298 114.82 13.8623C114.498 14.184 114.118 14.3449 113.678 14.3449ZM112.182 23V14.9563H115.158V23H112.182Z" fill="#383838"/>
<path d="M51.8024 26.9775V30.9937H51.4007V27.5857L49.995 29.938H49.9377L48.532 27.5857V30.9937H48.1304V26.9775H48.6295L49.9664 29.2151L51.3032 26.9775H51.8024ZM55.0659 30.6323C54.7752 30.9192 54.4194 31.0626 53.9987 31.0626C53.5779 31.0626 53.2203 30.9192 52.9258 30.6323C52.6351 30.3416 52.4897 29.9839 52.4897 29.5594C52.4897 29.1348 52.6351 28.7791 52.9258 28.4922C53.2203 28.2015 53.5779 28.0561 53.9987 28.0561C54.4194 28.0561 54.7752 28.2015 55.0659 28.4922C55.3604 28.7791 55.5077 29.1348 55.5077 29.5594C55.5077 29.9839 55.3604 30.3416 55.0659 30.6323ZM53.1954 30.3684C53.4135 30.5864 53.6812 30.6954 53.9987 30.6954C54.3162 30.6954 54.5839 30.5864 54.8019 30.3684C55.02 30.1465 55.129 29.8768 55.129 29.5594C55.129 29.2419 55.02 28.9741 54.8019 28.7561C54.5839 28.5343 54.3162 28.4233 53.9987 28.4233C53.6812 28.4233 53.4135 28.5343 53.1954 28.7561C52.9774 28.9741 52.8684 29.2419 52.8684 29.5594C52.8684 29.8768 52.9774 30.1465 53.1954 30.3684ZM56.52 28.6012C56.696 28.2531 56.9981 28.0791 57.4265 28.0791V28.4463C57.1664 28.4463 56.9503 28.5228 56.7782 28.6758C56.6061 28.8288 56.52 29.0698 56.52 29.3987V30.9937H56.1413V28.125H56.52V28.6012ZM59.0972 28.0561C59.5218 28.0561 59.8641 28.2072 60.1242 28.5094C60.3881 28.8078 60.5201 29.1616 60.5201 29.5708C60.5201 29.6129 60.5163 29.6722 60.5086 29.7487H57.9898C58.0281 30.0394 58.1505 30.2708 58.357 30.4429C58.5674 30.6112 58.8256 30.6954 59.1316 30.6954C59.3496 30.6954 59.5371 30.6514 59.6939 30.5634C59.8545 30.4716 59.975 30.3531 60.0553 30.2077L60.3881 30.4028C60.2619 30.6055 60.0898 30.7662 59.8717 30.8847C59.6537 31.0033 59.4051 31.0626 59.1259 31.0626C58.6745 31.0626 58.3073 30.9211 58.0243 30.638C57.7412 30.355 57.5997 29.9954 57.5997 29.5594C57.5997 29.131 57.7393 28.7733 58.0185 28.4865C58.2978 28.1996 58.6573 28.0561 59.0972 28.0561ZM59.0972 28.4233C58.7988 28.4233 58.5483 28.5132 58.3456 28.693C58.1467 28.869 58.0281 29.0985 57.9898 29.3815H60.1299C60.0917 29.0793 59.975 28.8441 59.7799 28.6758C59.5849 28.5075 59.3573 28.4233 59.0972 28.4233ZM64.0772 28.4922H63.251V30.2307C63.251 30.3875 63.2816 30.5003 63.3428 30.5692C63.404 30.6342 63.4958 30.6686 63.6182 30.6724C63.7406 30.6724 63.8936 30.6686 64.0772 30.661V30.9937C63.6756 31.0549 63.3734 31.0263 63.1707 30.9077C62.9718 30.7891 62.8724 30.5634 62.8724 30.2307V28.4922H62.2699V28.125H62.8724V27.4365L63.251 27.3217V28.125H64.0772V28.4922ZM66.0509 28.0561C66.399 28.0561 66.6725 28.1632 66.8714 28.3774C67.0741 28.5878 67.1755 28.8728 67.1755 29.2323V30.9937H66.7968V29.2323C66.7968 28.9761 66.728 28.7772 66.5903 28.6356C66.4564 28.4941 66.2651 28.4233 66.0165 28.4233C65.7411 28.4233 65.5174 28.5113 65.3452 28.6873C65.1731 28.8594 65.087 29.1271 65.087 29.4905V30.9937H64.7084V26.9775H65.087V28.5725C65.3012 28.2283 65.6225 28.0561 66.0509 28.0561ZM70.3748 28.125H70.7535V30.9937H70.3748V30.4315C70.1109 30.8522 69.7246 31.0626 69.2158 31.0626C68.8066 31.0626 68.4566 30.9172 68.1659 30.6265C67.879 30.3358 67.7356 29.9801 67.7356 29.5594C67.7356 29.1386 67.879 28.7829 68.1659 28.4922C68.4566 28.2015 68.8066 28.0561 69.2158 28.0561C69.7246 28.0561 70.1109 28.2665 70.3748 28.6873V28.125ZM68.4413 30.3684C68.6593 30.5864 68.9271 30.6954 69.2445 30.6954C69.562 30.6954 69.8298 30.5864 70.0478 30.3684C70.2658 30.1465 70.3748 29.8768 70.3748 29.5594C70.3748 29.2419 70.2658 28.9741 70.0478 28.7561C69.8298 28.5343 69.562 28.4233 69.2445 28.4233C68.9271 28.4233 68.6593 28.5343 68.4413 28.7561C68.2233 28.9741 68.1142 29.2419 68.1142 29.5594C68.1142 29.8768 68.2233 30.1465 68.4413 30.3684ZM72.8978 28.0561C73.2459 28.0561 73.5194 28.1632 73.7183 28.3774C73.921 28.5878 74.0224 28.8728 74.0224 29.2323V30.9937H73.6437V29.2323C73.6437 28.9761 73.5749 28.7772 73.4372 28.6356C73.3033 28.4941 73.112 28.4233 72.8634 28.4233C72.588 28.4233 72.3643 28.5113 72.1921 28.6873C72.02 28.8594 71.9339 29.1271 71.9339 29.4905V30.9937H71.5553V28.125H71.9339V28.5725C72.1481 28.2283 72.4694 28.0561 72.8978 28.0561ZM76.3209 27.0463C76.3745 26.9928 76.4395 26.966 76.516 26.966C76.5925 26.966 76.6575 26.9928 76.7111 27.0463C76.7646 27.0999 76.7914 27.1649 76.7914 27.2414C76.7914 27.3179 76.7646 27.3829 76.7111 27.4365C76.6575 27.49 76.5925 27.5168 76.516 27.5168C76.4395 27.5168 76.3745 27.49 76.3209 27.4365C76.2674 27.3829 76.2406 27.3179 76.2406 27.2414C76.2406 27.1649 76.2674 27.0999 76.3209 27.0463ZM76.3267 31.2232V28.125H76.7053V31.2232C76.7053 31.5675 76.6155 31.8257 76.4357 31.9978C76.2559 32.1699 76.0015 32.2407 75.6726 32.2101V31.8429C75.8983 31.8658 76.0627 31.8295 76.166 31.7339C76.2731 31.6383 76.3267 31.468 76.3267 31.2232ZM79.5309 28.125H79.9096V30.9937H79.5309V30.5462C79.3167 30.8905 78.9954 31.0626 78.567 31.0626C78.2189 31.0626 77.9435 30.9574 77.7408 30.747C77.5419 30.5328 77.4424 30.246 77.4424 29.8864V28.125H77.8211V29.8864C77.8211 30.1427 77.888 30.3416 78.0219 30.4831C78.1596 30.6246 78.3528 30.6954 78.6014 30.6954C78.8768 30.6954 79.1006 30.6093 79.2727 30.4372C79.4448 30.2613 79.5309 29.9916 79.5309 29.6282V28.125ZM81.009 28.8766C81.009 29.0067 81.0663 29.1099 81.1811 29.1864C81.2958 29.2629 81.4355 29.3222 81.5999 29.3643C81.7644 29.4064 81.9289 29.4542 82.0934 29.5077C82.2578 29.5575 82.3974 29.6435 82.5122 29.7659C82.6269 29.8845 82.6843 30.0413 82.6843 30.2364C82.6843 30.4812 82.5868 30.6801 82.3917 30.8331C82.2005 30.9861 81.9518 31.0626 81.6458 31.0626C81.3704 31.0626 81.1352 31.0014 80.9401 30.879C80.7489 30.7566 80.615 30.5979 80.5385 30.4028L80.8598 30.2134C80.9133 30.3626 81.009 30.4812 81.1467 30.5692C81.2882 30.6533 81.4546 30.6954 81.6458 30.6954C81.8333 30.6954 81.9901 30.6591 82.1163 30.5864C82.2425 30.5099 82.3056 30.3932 82.3056 30.2364C82.3056 30.1063 82.2483 30.0031 82.1335 29.9266C82.0188 29.8501 81.8792 29.7908 81.7147 29.7487C81.5502 29.7066 81.3857 29.6607 81.2213 29.611C81.0568 29.5575 80.9172 29.4714 80.8024 29.3528C80.6877 29.2304 80.6303 29.0717 80.6303 28.8766C80.6303 28.6433 80.7221 28.4482 80.9057 28.2914C81.0931 28.1346 81.3284 28.0561 81.6114 28.0561C81.8447 28.0561 82.0494 28.1097 82.2253 28.2168C82.4013 28.3201 82.5313 28.4616 82.6155 28.6414L82.2999 28.825C82.189 28.5572 81.9595 28.4233 81.6114 28.4233C81.4469 28.4233 81.3054 28.4635 81.1868 28.5438C81.0683 28.6203 81.009 28.7313 81.009 28.8766ZM84.7244 28.4922H83.8982V30.2307C83.8982 30.3875 83.9288 30.5003 83.99 30.5692C84.0512 30.6342 84.143 30.6686 84.2654 30.6724C84.3878 30.6724 84.5408 30.6686 84.7244 30.661V30.9937C84.3228 31.0549 84.0206 31.0263 83.8179 30.9077C83.619 30.7891 83.5195 30.5634 83.5195 30.2307V28.4922H82.9171V28.125H83.5195V27.4365L83.8982 27.3217V28.125H84.7244V28.4922ZM89.257 28.125H89.6357V30.9937H89.257V30.4315C88.9931 30.8522 88.6068 31.0626 88.098 31.0626C87.6888 31.0626 87.3388 30.9172 87.0481 30.6265C86.7612 30.3358 86.6178 29.9801 86.6178 29.5594C86.6178 29.1386 86.7612 28.7829 87.0481 28.4922C87.3388 28.2015 87.6888 28.0561 88.098 28.0561C88.6068 28.0561 88.9931 28.2665 89.257 28.6873V28.125ZM87.3235 30.3684C87.5415 30.5864 87.8093 30.6954 88.1267 30.6954C88.4442 30.6954 88.712 30.5864 88.93 30.3684C89.148 30.1465 89.257 29.8768 89.257 29.5594C89.257 29.2419 89.148 28.9741 88.93 28.7561C88.712 28.5343 88.4442 28.4233 88.1267 28.4233C87.8093 28.4233 87.5415 28.5343 87.3235 28.7561C87.1055 28.9741 86.9964 29.2419 86.9964 29.5594C86.9964 29.8768 87.1055 30.1465 87.3235 30.3684ZM91.78 28.0561C92.1281 28.0561 92.4016 28.1632 92.6005 28.3774C92.8032 28.5878 92.9046 28.8728 92.9046 29.2323V30.9937H92.5259V29.2323C92.5259 28.9761 92.4571 28.7772 92.3194 28.6356C92.1855 28.4941 91.9942 28.4233 91.7456 28.4233C91.4702 28.4233 91.2465 28.5113 91.0743 28.6873C90.9022 28.8594 90.8161 29.1271 90.8161 29.4905V30.9937H90.4375V28.125H90.8161V28.5725C91.0303 28.2283 91.3516 28.0561 91.78 28.0561ZM97.8022 30.9937L97.4293 30.0069H95.5244L95.1515 30.9937H94.7269L96.2703 26.9775H96.6834L98.2268 30.9937H97.8022ZM95.6679 29.6282H97.2858L96.4769 27.4767L95.6679 29.6282ZM100.223 28.0561C100.632 28.0561 100.98 28.2015 101.267 28.4922C101.558 28.7829 101.703 29.1386 101.703 29.5594C101.703 29.9801 101.558 30.3358 101.267 30.6265C100.98 30.9172 100.632 31.0626 100.223 31.0626C99.7141 31.0626 99.3277 30.8522 99.0638 30.4315V32.1412H98.6851V28.125H99.0638V28.6873C99.3277 28.2665 99.7141 28.0561 100.223 28.0561ZM99.3908 30.3684C99.6089 30.5864 99.8766 30.6954 100.194 30.6954C100.512 30.6954 100.779 30.5864 100.997 30.3684C101.215 30.1465 101.324 29.8768 101.324 29.5594C101.324 29.2419 101.215 28.9741 100.997 28.7561C100.779 28.5343 100.512 28.4233 100.194 28.4233C99.8766 28.4233 99.6089 28.5343 99.3908 28.7561C99.1728 28.9741 99.0638 29.2419 99.0638 29.5594C99.0638 29.8768 99.1728 30.1465 99.3908 30.3684ZM103.87 28.0561C104.28 28.0561 104.628 28.2015 104.915 28.4922C105.205 28.7829 105.351 29.1386 105.351 29.5594C105.351 29.9801 105.205 30.3358 104.915 30.6265C104.628 30.9172 104.28 31.0626 103.87 31.0626C103.362 31.0626 102.975 30.8522 102.711 30.4315V32.1412H102.333V28.125H102.711V28.6873C102.975 28.2665 103.362 28.0561 103.87 28.0561ZM103.039 30.3684C103.257 30.5864 103.524 30.6954 103.842 30.6954C104.159 30.6954 104.427 30.5864 104.645 30.3684C104.863 30.1465 104.972 29.8768 104.972 29.5594C104.972 29.2419 104.863 28.9741 104.645 28.7561C104.427 28.5343 104.159 28.4233 103.842 28.4233C103.524 28.4233 103.257 28.5343 103.039 28.7561C102.82 28.9741 102.711 29.2419 102.711 29.5594C102.711 29.8768 102.82 30.1465 103.039 30.3684Z" fill="#828282"/>
</svg>
