<svg width="53" height="56" viewBox="0 0 53 56" fill="none" xmlns="http://www.w3.org/2000/svg">
<path d="M15.0608 0.0195732C13.5538 0.0431404 12.3936 0.133133 11.3186 0.308826C7.62296 0.910904 5.54596 2.43859 5.02266 4.93903C5.0044 5.02473 3.87666 12.7274 2.51362 22.0586C1.15262 31.3897 0.0289328 39.0817 0.0187912 39.1524C-0.00757697 39.3302 -0.00554865 39.853 0.0208195 40.0437C0.130349 40.8022 0.477192 41.49 1.06743 42.1113C2.10796 43.2084 3.94765 44.029 5.77111 44.2111C6.0571 44.239 7.87448 44.2411 20.9328 44.2368L35.77 44.2304L36.0843 44.1811C37.2141 44.0076 38.208 43.6797 39.4148 43.0841C40.642 42.4756 41.4635 41.8607 42.0638 41.1022C42.4898 40.5644 42.7981 39.9044 42.9178 39.2659C42.9502 39.1031 43.8528 32.7352 43.8528 32.6795C43.8528 32.6752 41.3073 32.671 38.1979 32.671H32.5429L32.2894 34.2522L32.0358 35.8313L22.0017 35.8377C13.0791 35.842 11.9676 35.8377 11.9676 35.8099C11.9676 35.7928 12.8256 29.697 13.8742 22.2621C14.9229 14.8294 15.791 8.67361 15.8032 8.58148L15.8255 8.4165H25.8941H35.9626L35.9505 8.47435C35.9444 8.50863 35.8369 9.19855 35.7111 10.0127L35.4819 11.4912L36.7111 11.504C37.3865 11.5104 39.9584 11.519 42.4269 11.5212L46.9115 11.5233L46.9237 11.4633C46.9541 11.3026 47.5626 6.99809 47.7168 5.85607C47.8729 4.69263 47.877 4.65192 47.8628 4.34766C47.802 3.04281 46.9602 1.9565 45.3639 1.11445C44.1408 0.469524 42.8103 0.0967064 41.4493 0.0174294C41.0294 -0.00613785 16.5334 -0.00613785 15.0608 0.0195732Z" fill="#F2F2F2"/>
<path d="M35.7457 14.3174C34.5388 14.3988 33.3543 14.883 32.3888 15.6908C32.119 15.9136 31.6343 16.4279 31.4193 16.715C30.6384 17.7563 30.2002 18.9626 30.1171 20.2974C30.0907 20.7195 30.1029 20.8545 30.1901 21.0538C30.2915 21.2873 30.5227 21.4802 30.7702 21.5359C30.8534 21.553 32.9851 21.5573 39.3804 21.553C47.3639 21.5466 47.8933 21.5423 48.1123 21.508C49.376 21.3045 50.455 20.7345 51.3292 19.8132C52.3353 18.7505 52.9032 17.3835 52.9722 15.8644C52.9844 15.6287 52.9783 15.5323 52.9519 15.3866C52.8545 14.8788 52.5199 14.4974 52.0371 14.3431C51.9215 14.3067 51.5483 14.3045 43.9543 14.3024C39.5751 14.3003 35.8816 14.3067 35.7457 14.3174Z" fill="#F2F2F2"/>
<path d="M31.0741 24.3791C29.1614 24.4884 27.5165 25.8232 26.914 27.7559C26.7214 28.3729 26.6341 29.2107 26.7335 29.4914C26.7923 29.6542 26.8938 29.7699 27.054 29.8535L27.1899 29.9242H33.7211C40.5606 29.9242 40.3415 29.9263 40.7695 29.8363C41.9196 29.5899 42.9459 28.8293 43.5767 27.7537C43.9519 27.1109 44.1608 26.3932 44.2075 25.5747C44.2298 25.1933 44.1426 24.9083 43.9316 24.6812C43.7937 24.5334 43.5828 24.4198 43.386 24.3855C43.2968 24.3727 41.2766 24.3662 37.2199 24.3684C33.9016 24.3705 31.135 24.3748 31.0741 24.3791Z" fill="#F2F2F2"/>
<path d="M18.8781 47.1787C18.4562 47.2451 18.1844 47.6244 18.2574 48.0443C18.3264 48.4364 18.6124 48.6592 19.0465 48.6592C19.5069 48.6571 19.8193 48.3507 19.8233 47.8943C19.8274 47.4208 19.3994 47.0951 18.8781 47.1787Z" fill="#F2F2F2"/>
<path d="M28.5795 50.0991C28.5795 52.2824 28.5835 52.6617 28.6099 52.8224C28.6931 53.3259 28.9446 53.6901 29.3401 53.8851C29.62 54.0222 29.7356 54.0436 30.1616 54.0415C30.4719 54.0394 30.5611 54.0329 30.6788 53.9986L30.8208 53.9558L30.8147 53.8122C30.8106 53.733 30.8126 53.6687 30.8167 53.6687C30.8208 53.6687 30.8918 53.6965 30.9729 53.733C31.5854 54.0008 32.3481 54.1293 33.0053 54.0758C33.3704 54.0479 33.5914 54.0051 33.8734 53.9129C34.632 53.6623 35.1228 53.1695 35.2851 52.4945C35.3399 52.2674 35.352 51.9182 35.3115 51.7146C35.2709 51.5068 35.1593 51.2947 35.0011 51.1275C34.7395 50.8511 34.4312 50.699 33.6645 50.4655C32.9343 50.2448 32.774 50.1719 32.6199 49.9962C32.3785 49.7198 32.5225 49.287 32.9221 49.0878C33.1675 48.9678 33.2933 48.9442 33.7415 48.9442C34.0924 48.9442 34.1756 48.9506 34.3582 48.9935C34.6421 49.0621 34.8794 49.152 35.1066 49.2785L35.2932 49.3835L35.5386 48.8649C35.8206 48.2671 35.8226 48.3443 35.5265 48.1943C35.0498 47.9522 34.5042 47.8408 33.8044 47.8408C32.9586 47.8408 32.3095 48.0422 31.8187 48.4557C31.196 48.9828 30.9952 49.9727 31.3806 50.6176C31.5428 50.8876 31.841 51.1147 32.2609 51.2882C32.3724 51.3354 32.6868 51.4404 32.9586 51.5261C33.6624 51.7425 33.8328 51.8239 33.9667 52.0103C34.0133 52.0746 34.0255 52.1153 34.0316 52.2331C34.0539 52.6488 33.7213 52.9016 33.0702 52.9616C32.3947 53.0238 31.5875 52.8159 31.0702 52.4453L30.9546 52.3638L30.8045 52.6552C30.6321 52.9938 30.6301 52.9938 30.3644 52.9788C30.1859 52.968 30.0723 52.9145 29.9831 52.7988C29.8533 52.6317 29.8573 52.7302 29.8573 50.0198V47.5622H29.2184H28.5795V50.0991Z" fill="#F2F2F2"/>
<path d="M4.74473 47.8515C4.02468 47.9607 3.43444 48.2607 2.96387 48.7578C2.4142 49.3384 2.13023 50.0734 2.12618 50.9368C2.12415 51.6632 2.31684 52.2974 2.7083 52.8523C3.40604 53.8422 4.72648 54.3029 6.02257 54.0072C6.36536 53.9301 6.76697 53.7565 7.01442 53.5787C7.17263 53.4673 7.43226 53.2294 7.5215 53.1159L7.60669 53.0109L7.27607 52.6895C7.09555 52.5138 6.90489 52.3295 6.85216 52.2781L6.7548 52.1838L6.62093 52.3274C6.41404 52.5481 6.1605 52.7152 5.89073 52.8073C5.46276 52.9552 4.907 52.9188 4.47497 52.7173C4.02671 52.5074 3.69407 52.0874 3.53788 51.5368C3.48718 51.3611 3.48312 51.3096 3.48109 50.9797C3.47906 50.7033 3.48718 50.579 3.51354 50.4655C3.73666 49.5013 4.52162 48.9313 5.49724 49.0235C5.92522 49.0642 6.2822 49.2377 6.61484 49.5698C6.7406 49.6941 6.75885 49.707 6.79131 49.6813C6.80956 49.6641 7.00225 49.4798 7.21725 49.2677L7.60872 48.8863L7.50122 48.7664C6.9414 48.1364 6.16658 47.815 5.23153 47.8215C5.05912 47.8236 4.84006 47.8365 4.74473 47.8515Z" fill="#F2F2F2"/>
<path d="M20.4501 50.534L20.4562 52.7795L20.5029 52.9488C20.6489 53.4994 20.9836 53.8465 21.5109 53.9922C21.7584 54.0608 22.2756 54.0736 22.5352 54.0158C22.732 53.9729 22.9957 53.8701 23.0788 53.8015L23.1234 53.7651L22.9632 53.3066C22.874 53.0559 22.7969 52.8459 22.7928 52.8416C22.7888 52.8374 22.7218 52.8631 22.6448 52.8995C22.5332 52.9531 22.4683 52.9702 22.3324 52.9766C22.0991 52.9916 22.0018 52.9616 21.8841 52.8352C21.7239 52.6681 21.7239 52.6617 21.7239 51.4897V50.4762H22.2715H22.8192V49.9513V49.4263H22.2715H21.7239V48.8585V48.2907H21.085H20.444L20.4501 50.534Z" fill="#F2F2F2"/>
<path d="M9.38135 49.287C8.68361 49.4027 8.14205 49.7884 7.82157 50.3947C7.45851 51.0825 7.43619 52.0831 7.76478 52.8009C8.04875 53.418 8.5254 53.8186 9.18258 53.9943C9.33673 54.0372 9.41178 54.0436 9.74645 54.0415C10.075 54.0415 10.1562 54.0329 10.2941 53.9943C10.5375 53.9236 10.7991 53.7779 10.9695 53.613L11.1156 53.4715V53.7308V53.9901H11.7342H12.3528L12.3488 51.6589L12.3427 49.3299H11.7038H11.0649L11.0588 49.5591L11.0527 49.7884L10.9168 49.6705C10.5233 49.332 9.95942 49.1906 9.38135 49.287ZM10.2515 50.4012C10.647 50.5104 10.935 50.8254 11.0466 51.2689C11.0933 51.4575 11.0953 51.8517 11.0486 52.0403C10.9594 52.4002 10.7586 52.6766 10.4848 52.8202C10.3245 52.9037 10.1095 52.9616 9.95942 52.9616C9.71602 52.9616 9.38135 52.8288 9.20489 52.6638C8.90267 52.3788 8.76474 51.8667 8.85399 51.3482C8.93106 50.8854 9.24343 50.5212 9.65923 50.4033C9.80324 50.3605 10.1055 50.3605 10.2515 50.4012Z" fill="#F2F2F2"/>
<path d="M15.3732 49.2853C15.0061 49.3539 14.718 49.4953 14.4828 49.7202L14.3408 49.8595V49.5896V49.3196H13.7323H13.1238V52.5014V55.6832H13.7627H14.4016V54.6011C14.4016 54.0055 14.4077 53.5191 14.4138 53.5191C14.4199 53.5191 14.4787 53.5705 14.5436 53.6327C14.6917 53.7719 14.9249 53.9069 15.1622 53.9819C15.3346 54.0376 15.3651 54.0419 15.7403 54.0419C16.1034 54.0419 16.1521 54.0376 16.3326 53.9841C16.9492 53.8084 17.4157 53.4163 17.6855 52.8442C17.864 52.4671 17.937 52.1157 17.935 51.6443C17.9289 50.4487 17.2859 49.5553 16.2575 49.3174C16.0202 49.2617 15.5821 49.2467 15.3732 49.2853ZM15.8093 50.4016C16.0141 50.4595 16.148 50.5387 16.3001 50.6994C16.5395 50.9523 16.6389 51.2308 16.6389 51.655C16.6409 51.9421 16.6064 52.1028 16.4989 52.3364C16.3569 52.6428 16.077 52.8656 15.7464 52.932C15.5557 52.9706 15.4624 52.9685 15.2839 52.9299C14.7282 52.8056 14.3996 52.3385 14.3976 51.67C14.3976 51.2629 14.4949 50.963 14.7099 50.7209C14.8377 50.5773 15.0304 50.4552 15.215 50.4037C15.361 50.363 15.6612 50.3609 15.8093 50.4016Z" fill="#F2F2F2"/>
<path d="M24.8068 49.2892C23.6629 49.4841 22.9327 50.4805 22.9874 51.7725C23.028 52.7195 23.4458 53.4437 24.1598 53.8144C24.5148 53.9965 24.8555 54.0672 25.3038 54.0479C25.8109 54.0286 26.1273 53.9001 26.4579 53.5808L26.5715 53.4716V53.7308V53.9901H27.18H27.7885V51.6546V49.3192H27.1495H26.5106V49.5677V49.8162L26.3808 49.6898C26.2104 49.527 25.9731 49.3942 25.7257 49.3277C25.4681 49.257 25.0847 49.242 24.8068 49.2892ZM25.6952 50.4012C26.0928 50.4997 26.3889 50.8233 26.5005 51.2797C26.5411 51.4468 26.5411 51.856 26.5005 52.0381C26.397 52.4945 26.0725 52.8352 25.6486 52.9295C25.4681 52.9702 25.3768 52.9702 25.1821 52.9295C24.963 52.8866 24.7825 52.7859 24.6223 52.6188C24.3768 52.3638 24.2653 52.0146 24.2856 51.5689C24.3119 50.9775 24.6223 50.5383 25.1111 50.4033C25.2571 50.3626 25.535 50.3626 25.6952 50.4012Z" fill="#F2F2F2"/>
<path d="M43.4772 49.2784C42.388 49.3942 41.5503 50.1676 41.3252 51.2689C41.2745 51.5175 41.2724 52.0724 41.3232 52.2845C41.4043 52.6295 41.5382 52.8909 41.7491 53.1245C42.2339 53.6644 43.0574 53.8808 43.82 53.6687C44.0776 53.5958 44.2662 53.493 44.5259 53.283L44.5806 53.238L44.5685 53.3516C44.536 53.6622 44.3575 54.0779 44.175 54.2708C43.9133 54.5471 43.603 54.6564 43.0777 54.6564C42.5381 54.6564 42.0412 54.5107 41.6619 54.2408C41.5625 54.17 41.5503 54.1658 41.528 54.2C41.3658 54.4486 40.9723 55.1149 40.9783 55.1342C40.9946 55.1749 41.315 55.3656 41.5138 55.4513C42.2379 55.7663 43.2338 55.8284 44.035 55.6077C44.2967 55.5349 44.6699 55.3356 44.8808 55.1578C45.3108 54.7936 45.6151 54.2472 45.7997 53.5101C45.8483 53.3087 46.5907 49.4027 46.5907 49.3406C46.5907 49.3277 46.3696 49.3192 45.9822 49.3192H45.3737L45.3636 49.3663C45.3575 49.3942 45.3311 49.5656 45.3027 49.7477C45.2723 49.9298 45.2459 50.0819 45.2419 50.0862C45.2378 50.0905 45.2196 50.0626 45.1993 50.0219C45.1384 49.8977 45.0025 49.7284 44.8808 49.6256C44.6415 49.4263 44.3595 49.3192 43.9721 49.2763C43.747 49.2527 43.7145 49.2527 43.4772 49.2784ZM44.2764 50.4312C44.5482 50.5319 44.747 50.7354 44.822 50.9904C44.8666 51.149 44.8646 51.4896 44.8179 51.676C44.7064 52.1131 44.4082 52.4581 44.0228 52.5974C43.8322 52.6659 43.4346 52.6831 43.246 52.6295C42.7714 52.4988 42.5239 52.1388 42.5625 51.6375C42.5909 51.2668 42.7044 50.9968 42.9377 50.7526C43.1101 50.5704 43.2582 50.4826 43.5077 50.4119C43.7186 50.3519 44.0878 50.3626 44.2764 50.4312Z" fill="#F2F2F2"/>
<path d="M48.9539 49.2699C47.8769 49.3641 47.0209 50.0669 46.7248 51.1018C46.6315 51.4232 46.6051 51.6503 46.6173 52.0403C46.6254 52.3424 46.6335 52.4217 46.6802 52.5824C46.81 53.0409 47.0655 53.4008 47.4388 53.6558C48.1284 54.1272 49.2764 54.1829 50.1486 53.7865C50.3088 53.7137 50.5745 53.553 50.6638 53.4737L50.7125 53.433L50.4447 52.9937C50.2967 52.7516 50.1729 52.5545 50.1668 52.5545C50.1628 52.5545 50.11 52.5931 50.0533 52.6402C49.9214 52.7431 49.6496 52.8802 49.4711 52.9295C49.3941 52.9509 49.2237 52.9702 49.0634 52.9766C48.6131 52.9959 48.3332 52.9145 48.1223 52.7023C48.0168 52.5974 47.9479 52.4795 47.9093 52.3445C47.8931 52.2781 47.8931 52.2781 47.9965 52.2567C48.0554 52.2438 48.7998 52.0981 49.6537 51.9331C50.5076 51.7682 51.2256 51.6289 51.252 51.6225C51.2946 51.6118 51.2966 51.6032 51.2966 51.3589C51.2966 50.5447 51.0045 49.9405 50.4386 49.5806C50.0614 49.3406 49.4934 49.2206 48.9539 49.2699ZM49.4366 50.294C49.7125 50.3562 49.9458 50.5447 50.0533 50.7911C50.0817 50.8576 50.106 50.9454 50.108 50.9883L50.11 51.0632L48.9985 51.2754C48.386 51.3911 47.883 51.4832 47.8769 51.4789C47.8728 51.4746 47.889 51.3975 47.9113 51.3118C48.0148 50.9133 48.2683 50.5662 48.5665 50.4097C48.8383 50.2683 49.1425 50.2276 49.4366 50.294Z" fill="#F2F2F2"/>
<path d="M37.5547 49.3063C37.2058 49.377 36.8103 49.557 36.5486 49.767C36.2789 49.9834 35.9929 50.3498 35.8347 50.6797C35.6258 51.119 35.5183 51.781 35.5771 52.2674C35.6805 53.1502 36.1734 53.7651 36.9442 53.9772C37.2362 54.0586 37.65 54.0629 37.9583 53.9901C38.2829 53.9129 38.5871 53.7372 38.8528 53.4716L39.0232 53.3023L39.084 53.4266C39.1652 53.5937 39.2646 53.7137 39.4167 53.8187C39.6702 53.9944 40.0536 54.0736 40.4552 54.0329C40.6621 54.0136 40.8791 53.9665 40.9075 53.9365C40.9217 53.9215 41.0373 52.9595 41.0272 52.9466C41.0231 52.9423 40.9927 52.9488 40.9602 52.9638C40.9278 52.9766 40.8142 52.9873 40.7087 52.9895C40.5059 52.9916 40.4288 52.9659 40.3274 52.8695C40.2767 52.8181 40.2219 52.6488 40.2219 52.5352C40.2219 52.4924 40.3538 51.7596 40.516 50.9047C40.6783 50.0498 40.8101 49.3427 40.8101 49.3342C40.8101 49.3192 39.5729 49.3384 39.5546 49.3534C39.5506 49.3577 39.5222 49.4906 39.4917 49.6513C39.4613 49.812 39.4329 49.9469 39.4268 49.9512C39.4207 49.9577 39.3741 49.9041 39.3234 49.8334C39.153 49.6041 38.8873 49.4284 38.5688 49.3384C38.362 49.2806 37.7778 49.2613 37.5547 49.3063ZM38.4634 50.4012C38.8224 50.4997 39.0698 50.7654 39.1449 51.1361C39.1753 51.2925 39.1733 51.5775 39.1388 51.766C39.0719 52.1238 38.9644 52.3445 38.7433 52.5759C38.4938 52.8373 38.2301 52.9488 37.8589 52.9466C37.1754 52.9445 36.8022 52.5224 36.8427 51.7939C36.8813 51.0825 37.2444 50.5597 37.8082 50.4033C37.9583 50.3605 38.3153 50.3605 38.4634 50.4012Z" fill="#F2F2F2"/>
<path d="M18.3971 51.6546V53.9901H19.036H19.6749V51.6546V49.3192H19.036H18.3971V51.6546Z" fill="#F2F2F2"/>
</svg>
