<svg width="121" height="30" viewBox="0 0 121 30" fill="none" xmlns="http://www.w3.org/2000/svg">
<path d="M10.6103 0.393562C10.2713 0.912367 9.71136 1.9713 8.62088 4.13892C7.95031 5.48923 7.14721 7.02433 6.85248 7.55026C5.89461 9.24883 5.55567 9.89555 4.54623 11.921C4.00099 13.0154 3.02838 14.8704 2.39472 16.0431C1.75368 17.2157 1.1937 18.2533 1.14949 18.3456C1.10528 18.4381 0.847395 18.964 0.574768 19.5112C0.294777 20.0584 0.0737305 20.5488 0.0737305 20.5915C0.0737305 20.6838 1.0758 20.7336 4.53149 20.8118L6.52091 20.8544L7.05139 19.9092C7.84718 18.4807 8.09031 17.9832 9.23981 15.4887C9.82187 14.2307 10.6177 12.5606 11.0082 11.7718C11.4134 10.9473 11.7155 10.2509 11.7155 10.1301C11.7155 10.0092 11.6344 9.81021 11.5387 9.67521C11.4355 9.54022 11.2661 9.29857 11.1482 9.13508C11.0376 8.96455 10.9197 8.82948 10.8976 8.82948C10.8239 8.82948 9.33555 11.3098 9.01138 11.9708C8.84191 12.3119 8.44402 13.0297 8.11978 13.5698C7.79562 14.1099 7.25034 15.0694 6.90406 15.709C6.55775 16.3415 6.1746 16.9954 6.05671 17.1659L5.8504 17.4644L5.37884 17.4502C4.84096 17.436 3.85362 17.237 3.78731 17.1375C3.73573 17.0593 3.86836 16.7963 4.76727 15.1902C6.69774 11.7291 7.6851 9.92397 8.96713 7.52894L10.4039 4.8425L10.5955 5.10546C10.6913 5.24759 11.2734 6.31364 11.8776 7.47203C12.8428 9.31988 12.9755 9.61127 12.946 9.84581C12.9239 9.99502 12.6734 10.5067 12.3492 11.054C12.0471 11.5727 11.5608 12.454 11.2661 13.0083C10.4408 14.579 10.3818 14.2592 12.025 17.4075C12.7765 18.8503 13.4986 20.2859 13.6312 20.6057C13.7713 20.9326 13.9039 21.1955 13.9333 21.1955C14.0365 21.1955 14.5817 20.2716 15.5101 18.5304C16.0259 17.5497 16.6817 16.3486 16.9543 15.8582C17.2342 15.3678 17.4627 14.8846 17.4627 14.7922C17.4627 14.6927 16.9616 13.6693 16.3501 12.518C15.7459 11.3667 15.2228 10.3148 15.2007 10.1727C15.1638 9.94528 15.2449 9.76758 15.8564 8.68027C16.2396 7.99796 16.7996 6.9959 17.0943 6.44867C17.75 5.23338 18.1111 4.6364 18.2069 4.6364C18.2438 4.6364 18.3911 4.86382 18.5384 5.1481C18.6858 5.42527 18.9953 5.97961 19.231 6.37049C20.4026 8.35329 24.7867 16.5334 24.7425 16.6613C24.7277 16.704 24.2857 16.8319 23.7552 16.9385C22.952 17.1019 22.7825 17.1162 22.6573 17.038C22.5246 16.9598 18.5974 10.6346 17.75 9.14218L17.4111 8.5452L17.0869 8.75132C16.9101 8.87211 16.6522 9.07823 16.5122 9.21323C16.2617 9.46199 16.2617 9.46909 16.3501 9.76758C16.4017 9.93818 17.2416 11.5727 18.2069 13.4135C19.1795 15.2471 20.4247 17.6421 20.9847 18.7295L21.9941 20.7122L25.4498 20.6696C27.3434 20.6483 28.9129 20.6199 28.9276 20.6057C28.9423 20.5915 28.4118 19.5112 27.7487 18.2035C26.3119 15.3821 18.8258 1.05451 18.5384 0.564129L18.3321 0.230103L18.1995 0.386454C17.9859 0.656518 17.3375 1.82206 15.8638 4.60086C15.0975 6.04357 14.3754 7.37256 14.2649 7.54315L14.0512 7.86296L13.8744 7.52894C13.646 7.08828 12.6071 4.68615 11.6049 2.25558C11.1629 1.19665 10.7871 0.315386 10.765 0.286957C10.7355 0.25853 10.6692 0.308278 10.6103 0.393562ZM14.5449 12.0418C14.9207 12.7099 15.4733 13.9963 15.4733 14.2236C15.4733 14.3658 15.2375 14.7709 14.7364 15.5029C14.3312 16.0928 13.9628 16.576 13.926 16.576C13.7639 16.576 12.6734 14.8988 12.6734 14.643C12.6734 14.5292 12.8576 14.1313 13.1155 13.6978C13.3586 13.2926 13.7123 12.653 13.9039 12.2764C14.088 11.9068 14.2501 11.6012 14.2649 11.6012C14.2796 11.6012 14.4049 11.8002 14.5449 12.0418Z" fill="#003399"/>
<path d="M0 22.4393V22.7591H14.7733H29.5465V22.4393V22.1194H14.7733H0V22.4393Z" fill="#003399"/>
<path d="M0 24.1449V24.4647H14.7733H29.5465V24.1449V23.8251H14.7733H0V24.1449Z" fill="#003399"/>
<path d="M39.0944 20.1015L41.513 23.799L43.9443 20.1015L44.4761 24.6221H46.7301L45.2992 15.3149L41.513 20.722L37.7395 15.3149L36.3086 24.6221H38.5626L39.0944 20.1015ZM47.5611 21.7097C47.5611 22.3175 47.7046 22.8493 47.9916 23.3052C48.2787 23.761 48.6754 24.1156 49.1819 24.3688C49.6884 24.6221 50.2583 24.7487 50.8914 24.7487C51.5246 24.7487 52.0902 24.6221 52.5882 24.3688C53.0947 24.1156 53.4915 23.761 53.7785 23.3052C54.074 22.8493 54.2217 22.3175 54.2217 21.7097C54.2217 21.0934 54.074 20.5573 53.7785 20.1015C53.4915 19.6456 53.0947 19.2911 52.5882 19.0378C52.0902 18.7845 51.5246 18.6579 50.8914 18.6579C50.2583 18.6579 49.6884 18.7845 49.1819 19.0378C48.6754 19.2911 48.2787 19.6456 47.9916 20.1015C47.7046 20.5573 47.5611 21.0934 47.5611 21.7097ZM49.5238 21.7097C49.5238 21.4057 49.5871 21.144 49.7138 20.9246C49.8404 20.7051 50.005 20.5362 50.2076 20.418C50.4102 20.2999 50.6382 20.2408 50.8914 20.2408C51.1362 20.2408 51.3599 20.2999 51.5625 20.418C51.7736 20.5362 51.9382 20.7051 52.0564 20.9246C52.183 21.144 52.2463 21.4057 52.2463 21.7097C52.2463 22.0136 52.183 22.2753 52.0564 22.4947C51.9382 22.7058 51.7736 22.8704 51.5625 22.9886C51.3599 23.1068 51.1362 23.1659 50.8914 23.1659C50.6382 23.1659 50.4102 23.1068 50.2076 22.9886C50.005 22.8704 49.8404 22.7058 49.7138 22.4947C49.5871 22.2753 49.5238 22.0136 49.5238 21.7097ZM59.1459 21.0765V24.6221H61.1339V20.8739C61.1339 20.1732 60.9693 19.6287 60.6401 19.2404C60.3108 18.8521 59.7832 18.6579 59.0572 18.6579C58.6267 18.6579 58.2637 18.7466 57.9682 18.9238C57.6812 19.1011 57.4533 19.3502 57.2844 19.6709V18.7972H55.3597V24.6221H57.2844V21.0765C57.2844 20.8486 57.3266 20.6544 57.4111 20.494C57.4955 20.3336 57.6137 20.2112 57.7656 20.1268C57.9176 20.0424 58.0949 20.0002 58.2975 20.0002C58.6014 20.0002 58.8166 20.093 58.9433 20.2788C59.0783 20.4645 59.1459 20.7304 59.1459 21.0765ZM62.5293 16.6065C62.5293 16.9105 62.639 17.1595 62.8585 17.3536C63.078 17.5478 63.3397 17.6449 63.6436 17.6449C63.956 17.6449 64.2177 17.5478 64.4287 17.3536C64.6482 17.1595 64.7579 16.9105 64.7579 16.6065C64.7579 16.3026 64.6482 16.0578 64.4287 15.8721C64.2177 15.6779 63.956 15.5809 63.6436 15.5809C63.3397 15.5809 63.078 15.6779 62.8585 15.8721C62.639 16.0578 62.5293 16.3026 62.5293 16.6065ZM62.7192 18.7972V24.6221H64.568V18.7972H62.7192Z" fill="#003399"/>
<path d="M68.612 20.1015L71.0306 23.799L73.4618 20.1015L73.9937 24.6221H76.2477L74.8168 15.3149L71.0306 20.722L67.2571 15.3149L65.8262 24.6221H68.0802L68.612 20.1015ZM80.3835 24.7487C81.1263 24.7487 81.7553 24.6052 82.2702 24.3182C82.7936 24.0312 83.2073 23.6006 83.5112 23.0266L81.8017 22.6087C81.6582 22.862 81.464 23.0519 81.2192 23.1785C80.9828 23.3052 80.6958 23.3685 80.3581 23.3685C80.0627 23.3685 79.8136 23.3052 79.611 23.1785C79.4084 23.0435 79.2565 22.8493 79.1552 22.596C79.0539 22.3428 79.0032 22.0389 79.0032 21.6843C79.0117 21.296 79.0623 20.9752 79.1552 20.722C79.2565 20.4603 79.4042 20.2661 79.5984 20.1395C79.7925 20.0128 80.0331 19.9495 80.3201 19.9495C80.5481 19.9495 80.7465 20.0002 80.9153 20.1015C81.0841 20.2028 81.215 20.3463 81.3078 20.532C81.4007 20.7177 81.4471 20.9372 81.4471 21.1905C81.4471 21.2496 81.4303 21.3255 81.3965 21.4184C81.3712 21.5028 81.3374 21.5746 81.2952 21.6337L81.751 21.0512H78.1548V22.1149H83.4732C83.4901 22.0558 83.4985 21.984 83.4985 21.8996C83.4985 21.8067 83.4985 21.7139 83.4985 21.621C83.4985 20.9963 83.3761 20.4645 83.1313 20.0255C82.8865 19.5865 82.5319 19.2531 82.0676 19.0251C81.6033 18.7888 81.0335 18.6706 80.3581 18.6706C79.6828 18.6706 79.0961 18.793 78.598 19.0378C78.1084 19.2826 77.7327 19.633 77.471 20.0888C77.2093 20.5447 77.0785 21.085 77.0785 21.7097C77.0785 22.3259 77.2135 22.862 77.4837 23.3178C77.7538 23.7737 78.1337 24.1282 78.6233 24.3815C79.1214 24.6263 79.7081 24.7487 80.3835 24.7487ZM86.5664 18.7972H84.6797V24.6221H86.5664V18.7972ZM88.2506 20.7726L89.0736 19.1391C88.9723 18.9872 88.8246 18.869 88.6305 18.7845C88.4363 18.7001 88.2337 18.6579 88.0226 18.6579C87.7018 18.6579 87.3937 18.7634 87.0983 18.9745C86.8028 19.1855 86.5622 19.4726 86.3765 19.8356C86.1992 20.1986 86.1106 20.6122 86.1106 21.0765L86.5664 21.7476C86.5664 21.4691 86.6044 21.2327 86.6804 21.0385C86.7564 20.8444 86.8661 20.6966 87.0096 20.5953C87.1531 20.494 87.3177 20.4434 87.5035 20.4434C87.6723 20.4434 87.8116 20.4729 87.9213 20.532C88.0395 20.5911 88.1493 20.6713 88.2506 20.7726ZM91.3079 21.7097C91.3079 21.4226 91.3755 21.1652 91.5105 20.9372C91.6456 20.7093 91.8313 20.5278 92.0677 20.3927C92.3125 20.2577 92.5742 20.1901 92.8528 20.1901C93.0638 20.1901 93.2791 20.2239 93.4986 20.2914C93.7181 20.359 93.9207 20.456 94.1064 20.5827C94.3006 20.7093 94.4567 20.8655 94.5749 21.0512V19.1771C94.3723 19.0336 94.1191 18.9154 93.8152 18.8225C93.5113 18.7212 93.1398 18.6706 92.7008 18.6706C92.0593 18.6706 91.481 18.7972 90.966 19.0505C90.4595 19.3037 90.0585 19.6583 89.7631 20.1141C89.476 20.5616 89.3325 21.0934 89.3325 21.7097C89.3325 22.3175 89.476 22.8493 89.7631 23.3052C90.0585 23.761 90.4595 24.1156 90.966 24.3688C91.481 24.6221 92.0593 24.7487 92.7008 24.7487C93.1398 24.7487 93.5113 24.7023 93.8152 24.6094C94.1191 24.5081 94.3723 24.3773 94.5749 24.2169V22.3555C94.4567 22.5412 94.3048 22.6974 94.1191 22.824C93.9418 22.9506 93.7434 23.0519 93.5239 23.1279C93.3129 23.1954 93.0892 23.2292 92.8528 23.2292C92.5742 23.2292 92.3125 23.1659 92.0677 23.0392C91.8313 22.9126 91.6456 22.7396 91.5105 22.5201C91.3755 22.2921 91.3079 22.022 91.3079 21.7097ZM97.882 14.7451H95.9573V24.6221H97.882V14.7451ZM99.7435 21.0765V24.6221H101.656V20.7979C101.656 20.3167 101.588 19.9115 101.453 19.5823C101.318 19.2531 101.103 19.004 100.807 18.8352C100.52 18.6664 100.136 18.5819 99.6548 18.5819C99.1736 18.5819 98.7769 18.6959 98.4645 18.9238C98.1606 19.1433 97.9327 19.443 97.7807 19.8229C97.6288 20.1943 97.5528 20.6122 97.5528 21.0765H97.882C97.882 20.8486 97.9242 20.6586 98.0087 20.5067C98.0931 20.3463 98.2113 20.2239 98.3632 20.1395C98.5152 20.0466 98.6924 20.0002 98.8951 20.0002C99.2074 20.0002 99.4269 20.093 99.5535 20.2788C99.6801 20.4645 99.7435 20.7304 99.7435 21.0765ZM104.636 22.7987C104.636 22.6551 104.669 22.537 104.737 22.4441C104.804 22.3428 104.906 22.2668 105.041 22.2162C105.176 22.1655 105.357 22.1402 105.585 22.1402C105.881 22.1402 106.159 22.1824 106.421 22.2668C106.691 22.3428 106.927 22.4568 107.13 22.6087V21.7603C107.029 21.6506 106.877 21.545 106.674 21.4437C106.472 21.3424 106.227 21.258 105.94 21.1905C105.661 21.1229 105.345 21.0892 104.99 21.0892C104.264 21.0892 103.703 21.2538 103.306 21.583C102.909 21.9038 102.711 22.3428 102.711 22.9C102.711 23.2967 102.804 23.6344 102.989 23.913C103.184 24.1916 103.437 24.4026 103.749 24.5461C104.07 24.6812 104.416 24.7487 104.787 24.7487C105.159 24.7487 105.505 24.6854 105.826 24.5588C106.147 24.4237 106.408 24.2295 106.611 23.9763C106.814 23.7146 106.915 23.398 106.915 23.0266L106.712 22.2668C106.712 22.537 106.653 22.7649 106.535 22.9506C106.417 23.1363 106.265 23.2756 106.079 23.3685C105.893 23.4613 105.691 23.5078 105.471 23.5078C105.319 23.5078 105.18 23.4824 105.053 23.4318C104.927 23.3727 104.825 23.2925 104.749 23.1912C104.674 23.0815 104.636 22.9506 104.636 22.7987ZM103.787 20.5827C103.872 20.532 104.007 20.4687 104.192 20.3927C104.378 20.3083 104.593 20.2365 104.838 20.1775C105.091 20.1184 105.349 20.0888 105.611 20.0888C105.788 20.0888 105.944 20.1057 106.079 20.1395C106.223 20.1732 106.341 20.2281 106.434 20.3041C106.527 20.3801 106.594 20.4729 106.636 20.5827C106.687 20.684 106.712 20.8064 106.712 20.9499V24.6221H108.548V20.5194C108.548 20.1141 108.43 19.7722 108.194 19.4937C107.957 19.2151 107.637 19.004 107.231 18.8605C106.826 18.7086 106.366 18.6326 105.851 18.6326C105.302 18.6326 104.796 18.7044 104.332 18.8479C103.867 18.9914 103.471 19.1433 103.141 19.3037L103.787 20.5827ZM113.766 21.0765V24.6221H115.754V20.8739C115.754 20.1732 115.59 19.6287 115.26 19.2404C114.931 18.8521 114.403 18.6579 113.677 18.6579C113.247 18.6579 112.884 18.7466 112.588 18.9238C112.301 19.1011 112.074 19.3502 111.905 19.6709V18.7972H109.98V24.6221H111.905V21.0765C111.905 20.8486 111.947 20.6544 112.031 20.494C112.116 20.3336 112.234 20.2112 112.386 20.1268C112.538 20.0424 112.715 20.0002 112.918 20.0002C113.222 20.0002 113.437 20.093 113.563 20.2788C113.699 20.4645 113.766 20.7304 113.766 21.0765ZM116.58 18.7972V20.3801H120.48V18.7972H116.58ZM117.606 16.7712V24.6221H119.442V16.7712H117.606Z" fill="#FF6600"/>
</svg>
