<svg width="25" height="25" viewBox="0 0 25 25" fill="none" xmlns="http://www.w3.org/2000/svg">
<path d="M12.5 23.6111C10.6582 23.6111 8.89186 22.8795 7.58952 21.5771C6.28719 20.2748 5.55554 18.5084 5.55554 16.6667V8.33333C5.55554 6.49155 6.28719 4.7252 7.58952 3.42287C8.89186 2.12053 10.6582 1.38889 12.5 1.38889C14.3418 1.38889 16.1081 2.12053 17.4105 3.42287C18.7128 4.7252 19.4444 6.49155 19.4444 8.33333V16.6667C19.4444 17.5786 19.2648 18.4816 18.9158 19.3242C18.5668 20.1667 18.0553 20.9323 17.4105 21.5771C16.7656 22.222 16 22.7335 15.1575 23.0825C14.315 23.4315 13.4119 23.6111 12.5 23.6111ZM12.5 2.77777C11.0266 2.77777 9.61348 3.36309 8.57162 4.40496C7.52975 5.44683 6.94443 6.85991 6.94443 8.33333V16.6667C6.94443 18.1401 7.52975 19.5532 8.57162 20.595C9.61348 21.6369 11.0266 22.2222 12.5 22.2222C13.9734 22.2222 15.3865 21.6369 16.4284 20.595C17.4702 19.5532 18.0555 18.1401 18.0555 16.6667V8.33333C18.0555 6.85991 17.4702 5.44683 16.4284 4.40496C15.3865 3.36309 13.9734 2.77777 12.5 2.77777Z" fill="#F2F2F2"/>
<path d="M12.5 10.4167C12.3158 10.4167 12.1392 10.3435 12.0089 10.2133C11.8787 10.083 11.8055 9.9064 11.8055 9.72222V6.94444C11.8055 6.76027 11.8787 6.58363 12.0089 6.4534C12.1392 6.32316 12.3158 6.25 12.5 6.25C12.6842 6.25 12.8608 6.32316 12.991 6.4534C13.1213 6.58363 13.1944 6.76027 13.1944 6.94444V9.72222C13.1944 9.9064 13.1213 10.083 12.991 10.2133C12.8608 10.3435 12.6842 10.4167 12.5 10.4167Z" fill="#F2F2F2"/>
</svg>
