<svg width="100" height="100" viewBox="0 0 100 100" fill="none" xmlns="http://www.w3.org/2000/svg">
<circle opacity="0.1" cx="50" cy="50" r="50" fill="#34C759"/>
<g clip-path="url(#clip0)">
<path d="M65.4 44.2C71.2452 44.2 76 39.4452 76 33.6C76 27.7548 71.2452 23 65.4 23C61.1554 23 57.4957 25.5133 55.8045 29.1251L52.966 28.0774C52.9997 27.8601 53.0333 27.6427 53.0333 27.4167C53.0333 24.9815 51.0519 23 48.6167 23C46.1815 23 44.2 24.9815 44.2 27.4167C44.2 29.8519 46.1815 31.8333 48.6167 31.8333C50.1987 31.8333 51.5785 30.9897 52.3583 29.7363L55.1921 30.7822C54.9432 31.6815 54.8 32.6231 54.8 33.6C54.8 34.7572 54.9924 35.8683 55.337 36.9116L45.622 41.029C43.8433 37.666 40.3126 35.3667 36.25 35.3667C34.9336 35.3667 33.6776 35.6194 32.5135 36.0594L30.0701 30.9246C31.1346 30.1171 31.8333 28.8521 31.8333 27.4167C31.8333 24.9815 29.8519 23 27.4167 23C24.9815 23 23 24.9815 23 27.4167C23 29.8519 24.9815 31.8333 27.4167 31.8333C27.7841 31.8333 28.1365 31.7751 28.4786 31.6893L30.9189 36.8189C27.7734 38.6598 25.65 42.0659 25.65 45.9667C25.65 49.6307 27.5193 52.8647 30.3531 54.7689L28.7374 57.6734C28.3168 57.541 27.8795 57.45 27.4167 57.45C24.9815 57.45 23 59.4315 23 61.8667C23 64.3019 24.9815 66.2833 27.4167 66.2833C29.8519 66.2833 31.8333 64.3019 31.8333 61.8667C31.8333 60.5292 31.223 59.343 30.2815 58.533L31.9006 55.6225C33.2291 56.2238 34.699 56.5667 36.25 56.5667C38.674 56.5667 40.9035 55.7398 42.6913 54.3652L46.1681 58.1901C44.4049 60.084 43.3167 62.6141 43.3167 65.4C43.3167 65.9404 43.3706 66.4671 43.4482 66.9855L39.3576 67.9564C38.6537 66.4511 37.1351 65.4 35.3667 65.4C32.9315 65.4 30.95 67.3815 30.95 69.8167C30.95 72.2519 32.9315 74.2333 35.3667 74.2333C37.8019 74.2333 39.7833 72.2519 39.7833 69.8167C39.7833 69.7679 39.77 69.7222 39.7691 69.6735L43.8519 68.7056C45.2442 72.9355 49.2261 76 53.9167 76C59.7618 76 64.5167 71.2452 64.5167 65.4C64.5167 63.5876 64.0582 61.8809 63.2525 60.3881L68.4412 57.0144C69.2435 57.827 70.3545 58.3333 71.5833 58.3333C74.0185 58.3333 76 56.3519 76 53.9167C76 51.4815 74.0185 49.5 71.5833 49.5C69.1481 49.5 67.1667 51.4815 67.1667 53.9167C67.1667 54.4873 67.284 55.0295 67.482 55.5306L62.2812 58.9117C61.2404 57.5738 59.8891 56.4933 58.3333 55.7761L62.6448 43.8239C63.5246 44.0611 64.4459 44.2 65.4 44.2ZM48.6167 30.0667C47.1558 30.0667 45.9667 28.8775 45.9667 27.4167C45.9667 25.9558 47.1558 24.7667 48.6167 24.7667C50.0775 24.7667 51.2667 25.9558 51.2667 27.4167C51.2667 28.8775 50.0775 30.0667 48.6167 30.0667ZM24.7667 27.4167C24.7667 25.9558 25.9558 24.7667 27.4167 24.7667C28.8775 24.7667 30.0667 25.9558 30.0667 27.4167C30.0667 28.8775 28.8775 30.0667 27.4167 30.0667C25.9558 30.0667 24.7667 28.8775 24.7667 27.4167ZM27.4167 64.5167C25.9558 64.5167 24.7667 63.3275 24.7667 61.8667C24.7667 60.4058 25.9558 59.2167 27.4167 59.2167C28.8775 59.2167 30.0667 60.4058 30.0667 61.8667C30.0667 63.3275 28.8775 64.5167 27.4167 64.5167ZM35.3667 72.4667C33.9058 72.4667 32.7167 71.2775 32.7167 69.8167C32.7167 68.3558 33.9058 67.1667 35.3667 67.1667C36.8275 67.1667 38.0167 68.3558 38.0167 69.8167C38.0167 71.2775 36.8275 72.4667 35.3667 72.4667ZM71.5833 51.2667C73.0442 51.2667 74.2333 52.4558 74.2333 53.9167C74.2333 55.3775 73.0442 56.5667 71.5833 56.5667C70.1225 56.5667 68.9333 55.3775 68.9333 53.9167C68.9333 52.4558 70.1225 51.2667 71.5833 51.2667ZM60.1979 40.7232C60.5921 38.68 62.3933 37.1333 64.5167 37.1333H66.2833C68.4067 37.1333 70.2079 38.68 70.6021 40.7232C69.1408 41.7928 67.3461 42.4333 65.4 42.4333C63.4539 42.4333 61.6592 41.7928 60.1979 40.7232ZM65.4 35.3667C63.9391 35.3667 62.75 34.1775 62.75 32.7167C62.75 31.2558 63.9391 30.0667 65.4 30.0667C66.8609 30.0667 68.05 31.2558 68.05 32.7167C68.05 34.1775 66.8609 35.3667 65.4 35.3667ZM65.4 24.7667C70.2708 24.7667 74.2333 28.7292 74.2333 33.6C74.2333 35.8083 73.4125 37.826 72.0673 39.3762C71.4483 37.7462 70.1578 36.4454 68.5499 35.8032C69.3319 35.0061 69.8167 33.9179 69.8167 32.7167C69.8167 30.2815 67.8352 28.3 65.4 28.3C62.9648 28.3 60.9833 30.2815 60.9833 32.7167C60.9833 33.9179 61.4681 35.0061 62.2501 35.8032C60.6422 36.4454 59.3517 37.7462 58.7327 39.3762C57.3875 37.826 56.5667 35.8083 56.5667 33.6C56.5667 28.7292 60.5292 24.7667 65.4 24.7667ZM27.4167 45.9667C27.4167 41.0958 31.3792 37.1333 36.25 37.1333C41.1208 37.1333 45.0833 41.0958 45.0833 45.9667C45.0833 48.1819 44.2574 50.2048 42.9052 51.7571C42.2884 50.1211 40.9953 48.8138 39.3831 48.1698C40.1642 47.3728 40.649 46.2845 40.649 45.0833C40.649 42.6481 38.6675 40.6667 36.2323 40.6667C33.7971 40.6667 31.8156 42.6481 31.8156 45.0833C31.8156 46.2845 32.3004 47.3728 33.0824 48.1698C31.4792 48.809 30.1905 50.1051 29.5694 51.7286C28.2319 50.1802 27.4167 48.169 27.4167 45.9667ZM33.5823 45.0833C33.5823 43.6225 34.7715 42.4333 36.2323 42.4333C37.6932 42.4333 38.8823 43.6225 38.8823 45.0833C38.8823 46.5442 37.6932 47.7333 36.2323 47.7333C34.7715 47.7333 33.5823 46.5442 33.5823 45.0833ZM31.0332 53.0782C31.4313 51.0407 33.2299 49.5 35.349 49.5H37.1156C39.2429 49.5 41.0475 51.0519 41.4361 53.1015C39.9779 54.1647 38.1888 54.8 36.25 54.8C34.297 54.8 32.4967 54.1552 31.0332 53.0782ZM48.6999 72.5115C49.098 70.474 50.8966 68.9333 53.0156 68.9333H54.7823C56.9096 68.9333 58.7142 70.4852 59.1028 72.5348C57.6445 73.598 55.8554 74.2333 53.9167 74.2333C51.9637 74.2333 50.1634 73.5885 48.6999 72.5115ZM53.899 67.1667C52.4381 67.1667 51.249 65.9775 51.249 64.5167C51.249 63.0558 52.4381 61.8667 53.899 61.8667C55.3598 61.8667 56.549 63.0558 56.549 64.5167C56.549 65.9775 55.3598 67.1667 53.899 67.1667ZM62.75 65.4C62.75 67.6152 61.924 69.6381 60.5719 71.1904C59.9551 69.5544 58.662 68.2471 57.0497 67.6032C57.8309 66.8061 58.3157 65.7179 58.3157 64.5167C58.3157 62.0815 56.3342 60.1 53.899 60.1C51.4638 60.1 49.4823 62.0815 49.4823 64.5167C49.4823 65.7179 49.9671 66.8061 50.7491 67.6032C49.1459 68.2424 47.8571 69.5385 47.236 71.1619C45.8985 69.6135 45.0833 67.6023 45.0833 65.4C45.0833 60.5292 49.0458 56.5667 53.9167 56.5667C58.7875 56.5667 62.75 60.5292 62.75 65.4ZM56.6719 55.1761C55.792 54.9389 54.8707 54.8 53.9167 54.8C51.4927 54.8 49.2632 55.6268 47.4754 57.0014L43.9986 53.1765C45.7618 51.2826 46.85 48.7525 46.85 45.9667C46.85 44.8094 46.6576 43.6984 46.313 42.655L56.028 38.5377C57.1162 40.5951 58.8626 42.2461 60.9842 43.2239L56.6719 55.1761Z" fill="#34C759"/>
</g>
<defs>
<clipPath id="clip0">
<rect width="53" height="53" fill="white" transform="translate(23 23)"/>
</clipPath>
</defs>
</svg>
