<svg width="70" height="70" viewBox="0 0 70 70" fill="none" xmlns="http://www.w3.org/2000/svg">
<circle opacity="0.1" cx="35" cy="35" r="35" fill="#ED882B"/>
<g clip-path="url(#clip0)">
<path d="M53.828 42.6677L51.1378 39.9777C50.9083 39.7482 50.5364 39.7482 50.3069 39.9777C50.0775 40.2071 50.0775 40.5791 50.3069 40.8085L50.6816 41.1831L41.6505 50.2143L38.4288 46.9926L47.46 37.9615L48.3806 38.8822C48.6102 39.1116 48.9821 39.1116 49.2116 38.8822C49.441 38.6527 49.441 38.2807 49.2116 38.0513L47.8787 36.7184C46.8227 35.6356 46.1288 34.4019 45.1513 33.2443C46.2681 31.7444 45.0862 29.5485 43.226 29.6398C43.2875 28.3335 42.1713 27.2114 40.8608 27.2734C40.9222 25.9678 39.8019 24.8437 38.4938 24.9077C38.5953 22.7524 35.9014 21.783 34.4998 23.3396L34.3614 23.2013C33.4801 22.3199 32.0459 22.3199 31.1646 23.2013C30.6962 23.6697 30.4767 24.2942 30.5062 24.9089C29.1979 24.8462 28.0772 25.9633 28.1392 27.2748C27.618 27.2501 27.0902 27.405 26.6562 27.738C25.8575 27.4563 24.9842 27.5585 24.2108 28.0349C23.2573 28.6221 22.6605 29.6437 22.6459 30.7086L21.9804 35.8595L15.1721 42.6677C14.9426 42.8972 14.9426 43.2692 15.1721 43.4986L25.034 53.3606C25.1487 53.4753 25.2991 53.5327 25.4494 53.5327C25.5997 53.5327 25.7502 53.4753 25.8648 53.3606L31.8173 47.4081C32.0468 47.1786 32.0468 46.8066 31.8173 46.5772L30.8173 45.5772C31.94 44.4546 33.0661 43.8859 34.4999 43.2381C35.9226 43.8809 37.0697 44.4645 38.1824 45.5772L37.1824 46.5772C37.0723 46.6874 37.0104 46.8368 37.0104 46.9927C37.0104 47.1485 37.0723 47.2979 37.1824 47.4081L43.1349 53.3606C43.2497 53.4753 43.4001 53.5327 43.5504 53.5327C43.7007 53.5327 43.8511 53.4753 43.9659 53.3606L53.8279 43.4986C53.938 43.3885 53.9999 43.239 53.9999 43.0832C53.9999 42.9274 53.9381 42.7779 53.828 42.6677ZM43.3342 30.8122C44.0948 30.8131 44.636 31.6406 44.327 32.3375C43.8549 31.8558 43.3744 31.382 42.8975 30.905C43.0431 30.874 43.1886 30.8431 43.3342 30.8122ZM40.9679 28.4458C41.7355 28.4467 42.269 29.2715 41.9609 29.9707C41.4558 29.4771 40.8849 29.0317 40.2465 28.7231C40.4527 28.5415 40.6931 28.4491 40.9679 28.4458ZM25.0358 32.8036L24.8975 32.6653C24.4742 32.242 24.4742 31.5534 24.8975 31.1301C25.1091 30.9185 25.3871 30.8127 25.665 30.8127C25.9429 30.8127 26.221 30.9185 26.4325 31.1301L26.5708 31.2684L25.8033 32.0359L25.0358 32.8036ZM31.9955 24.0321C32.2071 23.8205 32.4851 23.7147 32.763 23.7147C33.0409 23.7147 33.319 23.8205 33.5305 24.0321L33.6689 24.1705L32.1337 25.7056L31.9954 25.5673C31.5722 25.144 31.5722 24.4554 31.9955 24.0321ZM29.3115 27.1657C29.3115 26.8758 29.4244 26.6032 29.6295 26.3982C29.8412 26.1866 30.1191 26.0808 30.397 26.0808C30.675 26.0808 30.953 26.1866 31.1646 26.3982L31.3029 26.5365L30.5354 27.3041L29.7678 28.0716L29.6294 27.9332C29.4244 27.7282 29.3115 27.4556 29.3115 27.1657ZM28.031 28.4467C28.3089 28.4467 28.587 28.5526 28.7985 28.7642L28.9369 28.9025L27.4017 30.4376L27.2634 30.2993C26.8401 29.8761 26.8401 29.1874 27.2634 28.7642C27.4751 28.5525 27.753 28.4467 28.031 28.4467ZM24.827 29.0353C25.0515 28.8971 25.4414 28.7197 25.9047 28.7658C25.8037 29.0475 25.7599 29.3453 25.7741 29.6409C25.0194 29.6047 24.2723 29.964 23.8303 30.5775C23.8911 29.9711 24.2681 29.3795 24.827 29.0353ZM25.4494 52.1142L16.4184 43.0832L17.4875 42.014L26.5185 51.0451L25.4494 52.1142ZM37.1183 43.131C36.7039 42.8734 36.2642 42.6561 35.8078 42.4833C36.3928 42.0621 36.8871 41.5425 37.3947 41.035C37.6241 40.8055 37.6241 40.4335 37.3947 40.2042C37.1652 39.9747 36.7932 39.9747 36.5638 40.2042C35.8512 40.9168 35.155 41.6064 34.2385 42.062C32.6329 42.8648 31.2788 43.4541 29.9866 44.7462L24.9912 39.7507C24.7617 39.5213 24.3897 39.5213 24.1603 39.7507C23.9309 39.9802 23.9309 40.3522 24.1603 40.5816L30.5712 46.9925L27.3496 50.2142L18.3184 41.1832L21.54 37.9616L22.1217 38.5433C22.3512 38.7727 22.7232 38.7727 22.9525 38.5433C23.182 38.3138 23.182 37.9418 22.9525 37.7125L22.3708 37.1307L22.9528 36.5488C23.0446 36.457 23.1033 36.3373 23.12 36.2086L23.568 32.7415C23.782 33.2756 24.223 33.6527 24.6192 34.0488C24.849 34.2787 25.2263 34.275 25.4512 34.05L35.4693 24.0318C36.4483 23.0529 37.9869 24.5852 37.0047 25.5673C36.89 25.682 36.8327 25.8324 36.8327 25.9827C36.8327 26.133 36.89 26.2834 37.0047 26.3981C37.2343 26.6275 37.6062 26.6275 37.8356 26.3981C38.826 25.4078 40.3607 26.943 39.3705 27.933C39.2559 28.0477 39.1985 28.1981 39.1985 28.3484C39.1985 28.2127 34.5313 28.276 34.1538 28.276C31.596 28.276 31.1714 32.0641 33.699 32.5573L36.6121 33.4201C37.0671 33.5547 37.4852 33.8035 37.8212 34.1396L40.2248 36.5431L38.5288 38.2392C38.2992 38.4686 38.2992 38.8406 38.5287 39.07C38.7581 39.2995 39.1301 39.2995 39.3595 39.07L41.471 36.9585C41.5813 36.8484 41.6431 36.6989 41.6431 36.5431C41.6431 36.3873 41.5813 36.2379 41.4711 36.1277L38.6522 33.3088C38.178 32.8346 37.5878 32.4834 36.9457 32.2935L34.0038 31.4222C32.92 31.1014 32.8183 29.4512 34.1539 29.4512H38.3282C39.4621 29.4512 40.432 30.101 41.2069 30.876C41.2069 30.876 43.7551 33.4346 43.9274 33.6275C44.9317 34.7443 45.5742 36.0754 46.6292 37.1303L39.0134 44.7461C38.4216 44.1545 37.8347 43.576 37.1183 43.131ZM43.5505 52.1142L42.4815 51.0452L51.5125 42.0141L52.5816 43.0832L43.5505 52.1142Z" fill="#ED882B"/>
<path d="M34.5001 19.8437C34.8247 19.8437 35.0876 19.5806 35.0876 19.2562V18.055C35.0876 17.7306 34.8247 17.4675 34.5001 17.4675C34.1756 17.4675 33.9126 17.7306 33.9126 18.055V19.2562C33.9126 19.5806 34.1756 19.8437 34.5001 19.8437Z" fill="#ED882B"/>
<path d="M31.187 20.061C31.2835 20.2816 31.4992 20.4133 31.7256 20.4133C31.8041 20.4133 31.884 20.3974 31.9606 20.3639C32.2579 20.2339 32.3935 19.8875 32.2635 19.5902L31.7822 18.4897C31.6522 18.1924 31.3058 18.0568 31.0085 18.1869C30.7112 18.3169 30.5756 18.6633 30.7056 18.9606L31.187 20.061Z" fill="#ED882B"/>
<path d="M29.012 21.8903C29.125 21.9948 29.268 22.0465 29.4107 22.0465C29.5688 22.0465 29.7264 21.983 29.8422 21.8578C30.0625 21.6196 30.0479 21.2479 29.8097 21.0275L28.9278 20.2121C28.6895 19.9917 28.3179 20.0064 28.0975 20.2446C27.8773 20.4828 27.8918 20.8545 28.1301 21.0749L29.012 21.8903Z" fill="#ED882B"/>
<path d="M37.0393 20.3638C37.1159 20.3973 37.1957 20.4132 37.2744 20.4132C37.5008 20.4132 37.7165 20.2815 37.813 20.0609L38.2943 18.9604C38.4242 18.6631 38.2886 18.3167 37.9914 18.1868C37.6943 18.0569 37.3477 18.1923 37.2176 18.4897L36.7364 19.5902C36.6064 19.8874 36.742 20.2338 37.0393 20.3638Z" fill="#ED882B"/>
<path d="M39.5892 22.0465C39.7318 22.0465 39.8749 21.9948 39.9879 21.8903L40.8699 21.0749C41.1081 20.8546 41.1228 20.4829 40.9024 20.2446C40.682 20.0064 40.3103 19.9917 40.0721 20.2121L39.1901 21.0275C38.9519 21.2478 38.9373 21.6195 39.1576 21.8578C39.2735 21.983 39.4311 22.0465 39.5892 22.0465Z" fill="#ED882B"/>
<path d="M27.5064 47.6975C27.8622 47.6134 28.0824 47.2568 27.9983 46.9011C27.9142 46.5453 27.5576 46.325 27.2018 46.4091C26.846 46.4932 26.6258 46.8498 26.7099 47.2056C26.794 47.5614 27.1506 47.7816 27.5064 47.6975Z" fill="#ED882B"/>
</g>
<defs>
<clipPath id="clip0">
<rect width="39" height="39" fill="white" transform="translate(15 16)"/>
</clipPath>
</defs>
</svg>
