<svg width="70" height="70" viewBox="0 0 70 70" fill="none" xmlns="http://www.w3.org/2000/svg">
<circle opacity="0.1" cx="35" cy="35" r="35" fill="#2D9CDB"/>
<path d="M28.9662 44.4045C28.6513 44.4045 28.396 44.6598 28.396 44.9748V47.9777C28.396 48.2927 28.6513 48.548 28.9662 48.548C29.2811 48.548 29.5364 48.2927 29.5364 47.9777V44.9748C29.5364 44.6598 29.2811 44.4045 28.9662 44.4045Z" fill="#2D9CDB"/>
<path d="M40.0038 44.4045C39.6889 44.4045 39.4336 44.6598 39.4336 44.9748V47.9777C39.4336 48.2927 39.6889 48.548 40.0038 48.548C40.3187 48.548 40.574 48.2927 40.574 47.9777V44.9748C40.574 44.6598 40.3187 44.4045 40.0038 44.4045Z" fill="#2D9CDB"/>
<path d="M51.0833 42.4139L49.174 41.6479V41.1602C49.5489 40.9519 49.8854 40.6809 50.1686 40.3609C51.3763 40.5035 52.5318 40.0214 53.2799 39.0515C54.0535 38.0485 54.2144 36.756 53.7105 35.5939L52.8531 33.617C52.7887 33.4684 52.7443 33.3117 52.7212 33.1514C52.5365 31.8673 51.8947 30.6922 50.9142 29.8427C49.9336 28.9931 48.6792 28.5253 47.3818 28.5253C46.0845 28.5253 44.83 28.9931 43.8494 29.8427C42.869 30.6922 42.2271 31.8672 42.0424 33.1514C42.0193 33.3118 41.975 33.4685 41.9105 33.617L41.0532 35.5939C40.5493 36.7559 40.7102 38.0485 41.4838 39.0515C42.1456 39.9095 43.126 40.3876 44.1794 40.3876C44.3153 40.3876 44.4525 40.3795 44.5904 40.3633C44.8474 40.6547 45.1488 40.9057 45.4844 41.1055V41.6478L43.5752 42.4139C43.4507 42.4638 43.3293 42.5203 43.2108 42.5828C42.8414 41.9033 42.314 41.3092 41.6577 40.8578L39.1709 39.1475C39.1852 38.8335 39.0596 38.5171 38.8038 38.3L37.7933 37.4426C37.6975 37.3612 37.5898 37.2998 37.4761 37.2581V36.1036C38.5442 35.3289 39.3016 34.1518 39.5236 32.7962H39.5845C40.6717 32.7962 41.5562 31.9117 41.5562 30.8246C41.5562 30.3604 41.3945 29.9335 41.1252 29.5963L41.5328 26.6987C41.8265 24.6099 40.3682 22.6582 38.2818 22.3478L38.2007 22.3358C37.5335 21.2469 36.5002 20.4613 35.2604 20.1098L35.1112 20.0674C33.4674 19.6014 31.7092 19.8796 30.2873 20.8308C30.0255 21.0059 29.9553 21.3601 30.1304 21.6218C30.3055 21.8835 30.6595 21.9538 30.9214 21.7786C32.0649 21.0136 33.4786 20.7899 34.8 21.1646L34.9493 21.207C35.9867 21.5011 36.8383 22.1867 37.3472 23.1373C37.6973 23.7914 37.8519 24.5107 37.8073 25.2302L37.4208 24.898C37.0674 24.5943 36.5479 24.5863 36.1856 24.879L35.6786 25.2886H32.7842C30.9061 25.2886 29.3781 26.8166 29.3781 28.6947V28.8531C29.2268 28.8536 29.0798 28.8717 28.9384 28.9046C28.2937 27.0898 28.4755 25.0451 29.4444 23.3726C29.6023 23.1 29.5094 22.7512 29.2369 22.5933C28.9644 22.4355 28.6156 22.5283 28.4577 22.8008C27.2859 24.8236 27.0959 27.3106 27.9383 29.4872C27.613 29.8389 27.4137 30.3088 27.4137 30.8246C27.4137 31.9117 28.2982 32.7962 29.3854 32.7962H29.4463C29.6683 34.1518 30.4257 35.3289 31.4938 36.1036V37.2581C31.38 37.2997 31.2724 37.3612 31.1767 37.4425L30.1661 38.3C29.9103 38.5171 29.7847 38.8335 29.799 39.1475L27.3122 40.8578C26.8068 41.2053 26.3777 41.6375 26.0383 42.1281C25.8184 42.0066 25.5892 41.9027 25.3518 41.8186L23.6634 41.2206V40.7712C24.5234 40.2398 25.1417 39.3541 25.3139 38.3192H25.569C26.5695 38.3192 27.3834 37.5053 27.3834 36.5049C27.3834 36.0557 27.219 35.6446 26.9476 35.3274L27.0494 34.1223C27.1909 32.3868 26.4337 30.7407 25.0237 29.7191C23.6138 28.6973 21.8137 28.4903 20.2085 29.1651L19.072 29.643C17.3121 30.0315 16.1359 31.7178 16.3872 33.509L16.6414 35.3215C16.3671 35.6395 16.2007 36.053 16.2007 36.5049C16.2007 37.5053 17.0146 38.3192 18.015 38.3192H18.2702C18.4312 39.287 18.9825 40.124 19.7566 40.6631V41.2206L18.0682 41.8186C17.8317 41.9024 17.5988 42.0073 17.3759 42.1306C17.1003 42.283 17.0004 42.6299 17.1527 42.9055C17.2567 43.0936 17.4514 43.1999 17.6522 43.1999C17.7455 43.1999 17.8402 43.1769 17.9276 43.1285C18.0959 43.0355 18.2712 42.9564 18.4488 42.8935L19.9078 42.3768C20.2032 43.0809 20.8996 43.5768 21.7099 43.5768C22.5201 43.5768 23.2165 43.0809 23.512 42.3768L24.971 42.8936C25.1545 42.9585 25.3317 43.0394 25.5014 43.1342C25.2749 43.7084 25.1535 44.3271 25.1535 44.9621V48.3449C25.1535 48.6599 25.4088 48.9151 25.7237 48.9151C26.0386 48.9151 26.294 48.6599 26.294 48.3449V44.9621C26.294 43.6972 26.9162 42.5142 27.9583 41.7975L30.3331 40.1643L31.3065 41.4657C31.5158 41.7455 31.8438 41.9031 32.1822 41.9031C32.2876 41.9031 32.394 41.8878 32.4981 41.8561L33.9146 41.425V48.5836C33.9146 48.8986 34.1699 49.1538 34.4848 49.1538C34.7997 49.1538 35.055 48.8986 35.055 48.5836V41.425L36.4717 41.8562C36.5758 41.8878 36.6821 41.9031 36.7874 41.9031C37.1258 41.9031 37.4539 41.7454 37.6631 41.4657L38.6365 40.1643L41.0113 41.7975C42.0535 42.5142 42.6756 43.6972 42.6756 44.9621V48.3449C42.6756 48.6599 42.9309 48.9151 43.2458 48.9151C43.5608 48.9151 43.8161 48.6599 43.8161 48.3449V44.9621C43.8161 44.5129 43.7552 44.0719 43.6396 43.6489C43.7552 43.5814 43.8754 43.5223 43.9997 43.4724L45.6553 42.8081C45.9487 43.4394 46.5884 43.8785 47.3292 43.8785C48.0699 43.8785 48.7097 43.4395 49.003 42.8082L50.6588 43.4724C51.7058 43.8924 52.3822 44.8927 52.3822 46.0208V46.9859C52.3822 47.3009 52.6375 47.5562 52.9524 47.5562C53.2673 47.5562 53.5227 47.3009 53.5227 46.9859V46.0208C53.5226 44.4241 52.5651 43.0084 51.0833 42.4139ZM28.5539 30.8245C28.5539 30.3686 28.9229 29.9976 29.3778 29.9936V31.6553C28.9229 31.6513 28.5539 31.2804 28.5539 30.8245ZM25.5689 37.1787H25.363V35.8309H25.5689C25.9405 35.8309 26.2428 36.1332 26.2428 36.5048C26.2428 36.8763 25.9405 37.1787 25.5689 37.1787ZM17.341 36.5048C17.341 36.1332 17.6433 35.8309 18.0149 35.8309H18.2208V37.1788H18.0149C17.6433 37.1787 17.341 36.8764 17.341 36.5048ZM18.9133 32.9328C18.5351 33.4551 18.3064 34.0566 18.2409 34.6904H18.0149C17.9103 34.6904 17.8079 34.6998 17.7081 34.7169L17.5164 33.3504C17.346 32.1355 18.1543 30.9925 19.3566 30.7482C19.3934 30.7407 19.4295 30.7296 19.4641 30.715L20.6505 30.2162C21.8854 29.697 23.27 29.8564 24.3545 30.6423C25.4391 31.4283 26.0216 32.6944 25.9129 34.0277L25.855 34.7131C25.7618 34.6983 25.6663 34.6903 25.5689 34.6903H25.358C25.3088 34.2069 24.8994 33.8283 24.4032 33.8283H22.9951C21.9916 33.8283 20.9986 33.4943 20.1991 32.8879L20.0378 32.7656C19.8684 32.6371 19.6505 32.5813 19.4404 32.6126C19.2301 32.644 19.038 32.7607 18.9133 32.9328ZM19.837 33.6017C19.8368 33.6019 19.8368 33.6021 19.8367 33.6022C19.8368 33.6021 19.8369 33.6019 19.837 33.6017ZM19.3613 35.07C19.3613 34.6576 19.4606 34.259 19.6509 33.9002C20.6221 34.5904 21.8027 34.9688 22.9952 34.9688H24.2226V37.7313C24.2226 39.0716 23.1321 40.162 21.7919 40.162C20.4517 40.162 19.3613 39.0716 19.3613 37.7313V35.07ZM21.7098 42.4364C21.2615 42.4364 20.8969 42.0717 20.8969 41.6235V41.1887C21.183 41.2629 21.4829 41.3024 21.7919 41.3024C22.0424 41.3024 22.2867 41.2763 22.5228 41.2269V41.6235C22.5228 42.0717 22.1581 42.4364 21.7098 42.4364ZM39.5916 31.6553V29.9936C40.0466 29.9975 40.4155 30.3686 40.4155 30.8245C40.4155 31.2804 40.0466 31.6513 39.5916 31.6553ZM40.4032 26.5397L40.0693 28.9133C39.9163 28.8745 39.7563 28.8535 39.5915 28.8529V28.8068C39.5915 27.8874 39.3072 27.0032 38.7922 26.2642C39.0168 25.3995 39.0088 24.5092 38.7764 23.663C39.8778 24.1331 40.5773 25.3022 40.4032 26.5397ZM30.5183 31.9682V28.6946C30.5183 27.4452 31.5348 26.4288 32.7841 26.4288H35.88C36.0103 26.4288 36.1368 26.3841 36.2382 26.3022L36.7881 25.858L37.299 26.2971C38.0312 26.9264 38.4511 27.8413 38.4511 28.8068V31.9681C38.4511 34.1553 36.6718 35.9346 34.4847 35.9346C32.2976 35.9346 30.5183 34.1553 30.5183 31.9682ZM34.4848 37.0751C35.1375 37.0751 35.7612 36.9507 36.3355 36.7265V37.4572L34.4848 38.3647L32.634 37.4572V36.7265C33.2082 36.9506 33.832 37.0751 34.4848 37.0751ZM32.199 40.7549L30.9707 39.1126L31.8676 38.3515L33.9145 39.3551V40.2328L32.199 40.7549ZM36.7704 40.7549L35.055 40.2329V39.3552L37.1018 38.3516L37.9987 39.1127L36.7704 40.7549ZM42.3867 38.355C41.8705 37.6856 41.7631 36.8232 42.0994 36.0477L42.9567 34.0708C43.0615 33.8293 43.1336 33.5747 43.1711 33.3139C43.4704 31.2342 45.2806 29.6658 47.3818 29.6658C49.483 29.6658 51.2932 31.2342 51.5924 33.3139C51.6299 33.5746 51.7021 33.8292 51.8068 34.0708L52.6641 36.0477C53.0004 36.8231 52.8931 37.6856 52.3768 38.355C51.9945 38.8506 51.4528 39.1557 50.8583 39.2289C50.9811 38.9099 51.0611 38.5698 51.0906 38.2153C51.1166 37.9015 50.8832 37.626 50.5694 37.6C50.2558 37.5745 49.9801 37.8074 49.954 38.1211C49.8442 39.4476 48.7143 40.4867 47.3818 40.4867C45.958 40.4867 44.7998 39.3285 44.7998 37.9047V35.1692C44.7998 34.5627 44.9783 33.9662 45.3071 33.4598C46.045 34.023 46.9545 34.3452 47.8836 34.3697L49.9638 34.4246V35.7381C49.9638 36.0531 50.2191 36.3083 50.534 36.3083C50.8489 36.3083 51.1043 36.0531 51.1043 35.7381V34.2702C51.1043 33.7339 50.6843 33.3027 50.1482 33.2887L47.9136 33.2298C47.1901 33.2107 46.4825 32.9486 45.9211 32.4921L45.7738 32.3722C45.6 32.2308 45.3817 32.166 45.1589 32.19C44.9362 32.2138 44.7365 32.3233 44.5966 32.4981C43.9921 33.2533 43.6591 34.202 43.6591 35.1695V37.9049C43.6591 38.3707 43.7459 38.8165 43.9029 39.2278C43.3094 39.1541 42.7685 38.85 42.3867 38.355ZM47.3291 42.738C46.9407 42.738 46.6246 42.422 46.6246 42.0335V41.5496C46.8692 41.6003 47.1224 41.6272 47.3817 41.6272C47.6036 41.6272 47.8213 41.6064 48.0335 41.5681V42.0336C48.0336 42.422 47.7176 42.738 47.3291 42.738Z" fill="#2D9CDB"/>
<path d="M16.2222 43.8892C15.9387 43.7516 15.5977 43.8704 15.4604 44.1538C15.1549 44.7849 15 45.4599 15 46.1601V47.9778C15 48.2928 15.2553 48.548 15.5702 48.548C15.8851 48.548 16.1404 48.2928 16.1404 47.9778V46.1601C16.1404 45.6335 16.257 45.1258 16.487 44.6508C16.6242 44.3674 16.5057 44.0263 16.2222 43.8892Z" fill="#2D9CDB"/>
</svg>
