<svg width="53" height="53" viewBox="0 0 53 53" fill="none" xmlns="http://www.w3.org/2000/svg">
<circle opacity="0.1" cx="26.5" cy="26.5" r="26.5" fill="#003399"/>
<g clip-path="url(#clip0)">
<path d="M35.0015 29.6226C34.8791 28.7722 34.2224 28.1092 33.3771 27.9116C30.0914 27.1415 29.2678 25.2494 29.1288 23.1507C28.5461 23.0423 27.5096 22.925 25.7501 22.925C23.9906 22.925 22.954 23.0423 22.3713 23.1507C22.2323 25.2494 21.4087 27.1415 18.123 27.9116C17.2777 28.1105 16.6211 28.7722 16.4987 29.6226L15.865 34.0112C15.6419 35.5565 16.7766 36.95 18.3551 36.95H33.1451C34.7222 36.95 35.8583 35.5565 35.6351 34.0112L35.0015 29.6226ZM25.7501 33.7523C23.9714 33.7523 22.5294 32.3243 22.5294 30.5648C22.5294 28.8053 23.9714 27.3773 25.7501 27.3773C27.5287 27.3773 28.9707 28.8053 28.9707 30.5648C28.9707 32.3243 27.5274 33.7523 25.7501 33.7523ZM38.4363 21.65C38.4057 19.7375 33.5378 16.5513 25.7501 16.55C17.9611 16.5513 13.0931 19.7375 13.0638 21.65C13.0345 23.5625 13.0906 26.0513 16.2959 25.637C20.0457 25.1512 19.8149 23.8418 19.8149 21.9701C19.8149 20.6645 22.8647 20.3495 25.7501 20.3495C28.6354 20.3495 31.6839 20.6645 31.6852 21.9701C31.6852 23.8418 31.4544 25.1512 35.2042 25.637C38.4083 26.0513 38.4656 23.5625 38.4363 21.65Z" fill="#003399"/>
</g>
<defs>
<clipPath id="clip0">
<rect width="25.5" height="25.5" fill="white" transform="translate(13 14)"/>
</clipPath>
</defs>
</svg>
