<svg width="70" height="70" viewBox="0 0 70 70" fill="none" xmlns="http://www.w3.org/2000/svg">
<circle opacity="0.1" cx="35" cy="35" r="35" fill="#F90000"/>
<g clip-path="url(#clip0)">
<path d="M44.1967 44.2713C44.502 44.3528 44.8148 44.1718 44.8964 43.8673C45.3484 42.1808 45.3484 40.3979 44.8964 38.7113L43.9786 35.286C43.6325 33.9943 42.9497 32.8116 42.0041 31.8659C41.781 31.6428 41.4192 31.6428 41.1962 31.8659C40.973 32.089 40.973 32.4507 41.1961 32.6738C42.0002 33.4779 42.5808 34.4834 42.8751 35.5817L43.7929 39.007C44.1929 40.5001 44.1929 42.0785 43.7929 43.5716C43.7111 43.8763 43.892 44.1896 44.1967 44.2713Z" fill="#F90000"/>
<path d="M30.1223 43.9856C30.088 43.672 29.8065 43.4458 29.4922 43.4798C29.1747 43.5146 28.9517 43.8013 28.9865 44.1098C29.1838 45.9146 30.7035 47.2755 32.5213 47.2755H37.828C38.5176 47.2755 39.1779 47.0626 39.7375 46.6599C39.9941 46.4752 40.0515 46.1183 39.8675 45.8625C39.6832 45.6064 39.3262 45.5482 39.0701 45.7324C38.7061 45.9944 38.2765 46.1329 37.8279 46.1329H32.5212C31.2876 46.1329 30.2562 45.2098 30.1223 43.9856Z" fill="#F90000"/>
<path d="M51.4101 47.9316L45.774 26.8973C45.7788 26.8961 45.7836 26.8949 45.7885 26.8936L48.9154 26.0557C49.5295 25.8913 49.8952 25.2578 49.7307 24.6436L49.1913 22.6304L50.2735 22.3404C50.5159 22.2754 50.7185 22.12 50.8439 21.9027C50.9693 21.6853 51.0027 21.4322 50.9376 21.1899L50.4366 19.3198C50.3024 18.8197 49.7868 18.5217 49.2861 18.6557L48.2039 18.9456L47.6643 16.9324C47.4997 16.3183 46.8661 15.9527 46.2523 16.1171L43.1253 16.955C43.0296 16.9807 42.9389 17.0178 42.8548 17.0653C42.6343 16.8018 42.3667 16.5763 42.0602 16.3993C41.3729 16.0026 40.5725 15.8973 39.8057 16.1026L34.937 17.4071C33.7866 17.7153 32.9744 18.6623 32.7798 19.7644C32.6839 19.7655 32.5875 19.7786 32.4926 19.8041L32.0431 19.9245C31.7383 20.0062 31.5574 20.3195 31.6391 20.6242C31.7207 20.929 32.0343 21.1097 32.3387 21.0282L32.7883 20.9077C32.7932 20.9065 32.7997 20.9104 32.801 20.9151C32.9136 21.3353 34.7516 28.1949 34.8672 28.6264C34.8685 28.6311 34.8646 28.6378 34.8598 28.6391L31.7329 29.477C31.7275 29.4785 31.7217 29.4752 31.7201 29.4696C30.8247 26.1278 30.265 24.0389 29.6539 21.7583C29.6526 21.7536 29.6565 21.7469 29.6613 21.7456L29.7608 21.7189C30.0656 21.6372 30.2463 21.3239 30.1647 21.0192C30.0829 20.7144 29.7694 20.5339 29.4649 20.6153L29.3655 20.642C29.068 20.7216 28.8194 20.9124 28.6655 21.1792C28.5115 21.4459 28.4705 21.7566 28.5503 22.0541L29.0897 24.0674L28.0074 24.3574C27.7651 24.4224 27.5624 24.5778 27.4371 24.7951C27.3116 25.0124 27.2782 25.2656 27.3433 25.5079L27.8443 27.3777C27.9785 27.8789 28.493 28.1765 28.9948 28.0421L30.0771 27.7521L30.6165 29.7654C30.7812 30.3799 31.4148 30.7452 32.0286 30.5806L35.1555 29.7428C35.6754 29.6035 36.0053 29.1372 36.0105 28.6432C36.2653 28.7671 36.5385 28.8579 36.8243 28.9098C37.3494 29.0054 37.7569 29.3709 37.8881 29.8639L38.1433 30.823C38.2337 31.1601 38.2363 31.5173 38.151 31.8559L37.6041 34.0258C36.9441 36.6445 37.2231 39.3496 38.3327 41.7177C37.5732 41.3986 36.7503 41.2311 35.9016 41.2311H35.064C34.7484 41.2311 34.4927 41.4869 34.4927 41.8024C34.4927 42.1179 34.7484 42.3737 35.064 42.3737H35.9016C37.2718 42.3737 38.5599 42.9073 39.5287 43.8761C40.5871 44.9295 40.9865 45.406 41.9084 46.09C42.1618 46.2779 42.5196 46.2249 42.7075 45.9715C42.8955 45.718 42.8424 45.3603 42.589 45.1723C39.233 42.6829 37.6741 38.4228 38.7119 34.3051L39.2588 32.1352C39.3917 31.6082 39.3875 31.0521 39.2472 30.5282L38.9922 29.5702C38.7499 28.6591 37.9792 27.9586 37.0289 27.7857C36.2602 27.6459 35.633 27.0682 35.4309 26.3141C35.4292 26.3076 35.4661 26.446 34.9449 24.5013C34.8317 24.0784 35.0822 23.6445 35.5052 23.5311C37.4063 23.0217 35.9846 23.4027 37.8857 22.8933C37.9165 22.8852 37.9411 22.894 37.9564 22.9029C37.972 22.9119 37.9924 22.9294 38.0009 22.961C38.1634 23.5697 37.7948 24.1868 37.2027 24.3447L36.6306 24.498C36.3259 24.5796 36.1451 24.8929 36.2267 25.1977C36.3083 25.5024 36.6215 25.6832 36.9264 25.6017C37.2375 25.5183 37.5867 25.4248 37.8872 25.3442C38.1683 25.2688 38.4577 25.269 38.7318 25.3415C38.7437 25.3452 38.7557 25.3485 38.7679 25.3514C38.895 25.3882 39.0187 25.4407 39.1363 25.5086C39.517 25.7284 39.7894 26.0834 39.9032 26.5081C39.9846 26.8122 40.297 26.9938 40.6029 26.912C40.9067 26.8306 41.0887 26.5181 41.0068 26.2123C40.882 25.7467 40.6448 25.3306 40.318 24.994C40.5505 24.873 40.6761 24.6031 40.6055 24.3395C40.5239 24.0348 40.2106 23.8542 39.9058 23.9356L38.9816 24.1832C39.1891 23.7222 39.245 23.1897 39.1043 22.6644C39.0961 22.6338 39.0868 22.6038 39.0765 22.5743C39.8391 22.3699 42.3122 21.7073 43.1412 21.4852L43.537 22.9626L42.5127 23.2371C42.2079 23.3188 42.0271 23.632 42.1088 23.9368C42.1902 24.2409 42.5026 24.4225 42.8085 24.3407L43.8328 24.0663L50.3068 48.2274C50.5661 49.1954 50.365 50.2065 49.7549 51.0015C49.1449 51.7965 48.2204 52.2524 47.2182 52.2524H35.4836C35.0522 52.2524 34.6267 52.3664 34.2531 52.5822C32.808 53.4165 31.1621 53.8576 29.4934 53.8576H25.5128C23.6432 53.8576 21.8904 53.1243 20.5775 51.7929C19.2649 50.4617 18.5565 48.6982 18.5827 46.8272C18.6346 43.1218 21.6911 40.0578 25.3959 39.9969C27.1793 39.967 28.8802 40.6128 30.1917 41.8135C30.5863 42.1749 31.0913 42.3738 31.6135 42.3738H32.3981C32.7136 42.3738 32.9693 42.1181 32.9693 41.8026C32.9693 41.4871 32.7136 41.2313 32.3981 41.2313H31.6135C31.3776 41.2313 31.1467 41.1388 30.9632 40.9709C29.4354 39.572 27.4541 38.8206 25.3772 38.8545C23.2775 38.889 21.2979 39.7332 19.8034 41.2315C18.3089 42.7298 17.4696 44.7114 17.4403 46.8112C17.4097 48.9905 18.235 51.0447 19.764 52.5953C21.2933 54.1462 23.335 55.0003 25.5129 55.0003H29.4934C31.3625 55.0003 33.2059 54.5063 34.8245 53.5718C35.0247 53.4563 35.2526 53.3952 35.4837 53.3952H47.2181C48.5782 53.3952 49.8333 52.7763 50.6613 51.6972C51.4893 50.6178 51.7622 49.2454 51.4101 47.9316ZM28.8954 26.8857L28.4995 25.4083L29.3855 25.1708L29.7814 26.6483L28.8954 26.8857ZM49.3856 19.8119L49.7814 21.2893L48.8954 21.5268L48.4995 20.0493L49.3856 19.8119ZM43.4211 18.0586L46.5481 17.2207C46.5534 17.2192 46.5593 17.2224 46.5609 17.2281L48.6271 24.9392C48.6286 24.9448 48.6253 24.9506 48.6197 24.952L45.4927 25.7899C45.4872 25.7915 45.4815 25.7881 45.4799 25.7825C45.3043 25.1271 43.6569 18.9787 43.4137 18.0712C43.4124 18.0666 43.4163 18.0599 43.4211 18.0586ZM40.9882 20.879C41.0137 20.6596 40.9992 20.4317 40.9385 20.2053L40.6933 19.2902C40.6117 18.9855 40.2985 18.8049 39.9936 18.8862C39.6893 18.9677 39.5078 19.2806 39.5896 19.5859L39.8348 20.501C39.93 20.8569 39.7165 21.2196 39.3665 21.3136L38.8882 21.4417L38.5466 20.1668C38.465 19.8621 38.1516 19.6814 37.8469 19.7629C37.5421 19.8445 37.3613 20.1578 37.4429 20.4626L37.7845 21.7374C37.4856 21.8175 36.8945 21.9759 36.6662 22.037L36.3246 20.7622C36.243 20.4576 35.9297 20.2767 35.6249 20.3583C35.3201 20.44 35.1393 20.7533 35.2209 21.058L35.5625 22.3328L35.3431 22.3916C34.8464 22.5248 34.3364 22.2304 34.2032 21.7335C34.2009 21.725 33.9432 20.7632 33.9397 20.75C33.6788 19.7761 34.2588 18.7716 35.2326 18.5107L40.1013 17.2062C40.5729 17.0798 41.0658 17.1447 41.4887 17.3888C41.9116 17.633 42.2142 18.0273 42.3406 18.499L42.845 20.3815L40.9882 20.879Z" fill="#F90000"/>
</g>
<defs>
<clipPath id="clip0">
<rect width="39" height="39" fill="white" transform="translate(15 16)"/>
</clipPath>
</defs>
</svg>
